<mxfile host="app.diagrams.net" agent="Mozilla/5.0 (Macintosh; Intel Mac OS X 10_15_7) AppleWebKit/605.1.15 (KHTML, like Gecko) Version/17.4.1 Safari/605.1.15" version="24.8.0">
  <diagram name="StrÃ¡nka-1" id="A1Z5GTuMA5VsakR7vsgV">
    <mxGraphModel dx="1161" dy="1287" grid="1" gridSize="10" guides="1" tooltips="1" connect="1" arrows="1" fold="1" page="1" pageScale="1" pageWidth="827" pageHeight="1169" math="1" shadow="0">
      <root>
        <mxCell id="0" />
        <mxCell id="1" parent="0" />
        <mxCell id="1D5xT1P8oQCdssmX4UYB-21" value="" style="rounded=1;whiteSpace=wrap;html=1;fillColor=none;strokeColor=default;dashed=1;strokeWidth=3;" parent="1" vertex="1">
          <mxGeometry x="960" y="610.89" width="2090" height="350" as="geometry" />
        </mxCell>
        <mxCell id="1D5xT1P8oQCdssmX4UYB-20" value="" style="shape=image;verticalLabelPosition=bottom;labelBackgroundColor=default;verticalAlign=top;imageAspect=0;image=data:image/png,iVBORw0KGgoAAAANSUhEUgAABaMAAAEwCAYAAACqvm2bAAAAAXNSR0IArs4c6QAAAERlWElmTU0AKgAAAAgAAYdpAAQAAAABAAAAGgAAAAAAA6ABAAMAAAABAAEAAKACAAQAAAABAAAFo6ADAAQAAAABAAABMAAAAAAK1tdfAABAAElEQVR4AeydB3wcxdn/n9OpWt22ZEm2bEnuvXdsmukhhFDevCEF3ryBQNr7T4MQEnhJCKQn5E0hhLxJ3pBCCIEkNNuAARsb944L7jbuvchW2//8Rp7T3upOupPuTnt7v/FnPLOzs7Mz39nT7f322Wd8586dEwYSIAESIAESIAESIAESIAESIAESIAESIAESaI/AAw88IA8//LCUl5fLmjVr2qve7v5DaXXykZy1ut4snyU9rPCH/F18Uqd2f7m+j1xaVxq+YoR77r77bnniiSdk+PDhsnz58giPYjUSIIHOEEjrzME8lgRIgARIgARIgARIgARIgARIgARIgARIgARIgARIgAQiIUAxOhJKrEMCJEACJEACJEACJEACJEACJEACJEACJEACJEACJNApAumdOpoHkwAJkAAJkAAJkAAJkAAJkAAJkECMCcyfP19Wr14daHXAgAFy+eWXB7aZIQESIAESIAESSE4CFKOTc97YaxIgARIgARIgARIgARIgARLwLIHnnntOHn300cD4brrppriL0W+88YacPn06cM7c3FyZOXNmYDvVMzt27JD169cHMGRkZMisWbMC28yQAAmQAAmQQCQEKEZHQol1SIAESIAESIAESIAESIAESIAEPE3grrvuks2bNwfGOHjw4CDr7MCOJM3U1tYGie0FBQWSmZkZ8Whuv/12mTdvXqB+UVGR7N+/P7DNDAmQAAmQAAlEQoBidCSUWIcESKAVAVpGtELCAhIgARIgARIgARIgARJwLYGf/vSn8vWvfz3QvxtvvFGefPLJwHZ7mcbGxvaqcD8JkAAJkAAJtEuAYnS7iFiBBEggFAFaRoSiwjISIAESIAESIAESIAESSA4Chw8fTo6OspckQAIkQAKeIpDmqdFwMCRAAgkjQMuIhKHmiUiABEiABEiABEiABBJAoLS0NAFn4SlIgARIgARIILUJ0DI6teefoycBEiABEiABEiABEiABEiABElAEXnrpJTl79myARVoabbcCMFQGi0raDVJ8Pp99N/MkQALnCViWpXP8jPCSIIHQBChGh+bCUhIgARIgARIgARIgARIgARIggRQigMX8olnQL4XQ6KHm5uam2pA5XhLoEIGnnnpK8DDrpptu6tDxPIgEvE6AYrTXZ5jjI4E4EaBlRJzAslkSIAESIAESIAESSHICdXV1sn79etm7d68MHDhQ+vfvL/GwENy/f7/s3LlTDh48KGVlZTJy5EjJyMjocnp79uzRYz906JB069ZNhg4dKiUlJTHtV0NDg7z77rvS1NQk1dXVkpOTE9P2k7mxRPBPZj7se3wJnDlzRr761a/qv3nXXHON/hsQ3zOydRJIPgIUo5NvzthjEnAFAVpGuGIa2AkSIAESIAESIAEScAWBBQsWyBNPPCGrV6+WDRs2SH19faBfeXl5WigeO3asfOUrX5Hy8vLAvmgzEGF/+ctfyv/93//JypUrgw7Pzs4WnOOqq66SL3/5y9oyMaiCbQNi+de//nVbSevsDTfcIB/+8Idb7whRsnv3bvnxj38szz//vGzdurVVjR49emhR+kMf+pD853/+Z9TifG1trTz++OOyfPlyWbt2rWzcuFEg+iNA6K+oqJABAwbIZZddJh/96Ee1OG86gXEgbN682RTp9LXXXhOzL2jH+Y17771Xxo8fH9j1pz/9SZ5++unA9qWXXip33XVXYBsZiOM333yzGDcFKJs5c6Z8/vOfRzbi8Morr8jPf/7zQH1Ymf7+978PK7rHm3+gI8yQQDsEvv/97wseiCD88Ic/lPvuu6+dI7ibBFKPAMXo1JtzjthjBGAJsm3bNm0RUlhYKJWVldKvX792R3nixAnZvn277Nu3T7KysmTYsGExt9hotxMuq5AoKx6XDZvdIQESIAESIAESIIEOE4AP4W9/+9vy8MMPB/kTtjd46tQpWbhwoY5/+ctftKgKi8Fow5IlS+TOO++UNWvWhDwU/p7NeZBCsM7Pzw9ZF1bL//rXv0LuM4W9evVqV4yG+PrQQw8JBCi7v2nThkkPHz4s8+fP1/Fvf/ub/OpXv5K+ffua3W2mGMsnP/nJVmKyOQjCL8QvxNdff10eeOABufLKK+WRRx7RlultjbOtfRdccEGQGI2HDPb6OK9TjIZofPr0aXn11VdN9+TNN9+U22+/PayQHKhoy0DYnz17dqBkyJAhIY9PBP9AJ5ghgXYI4E2NH/zgB4GHTfi78PGPf1z/Rm/nUO4mgZQiQDE6paabg002Ar/97W/ln//8Z6Db//Zv/6YtDVDw5JNP6pvYt99+O8jyAPsGDRqkbwzvuOOOVhYhf//73+U3v/mNwBLCbrGC4/D64BVXXKGf4ELYbitEYhlhP76tsaAeblqXLVsm+JGxYsUKbemBHw9TpkzRN9+oE4s20I49xMOKJx79tPeZeRIgARIgARIgARJwA4H33ntPPvKRjwjupyINEGU/+MEPalH5e9/7XsRuNf76178KRFyIj5GEF198US666CJBWlpaGskhUdc5d+6c3HrrrfLMM89EdSzuw2HBDevfMWPGhD0W7d9///3yk5/8JOJxozFYj0M0hoUy3KQkOkA4t4vRx48f14xuueWWiLoCK+e5c+cG1YU1uTPEm7/zfNwmgfYIwD2H/aEU3mjAGwZ4MMZAAiTQQoBidAsL5kjAdQTWrVsXZH0AX3CTJ0/WN++4eQ0XNm3aJP/1X/8lc+bM0aI1joMFyec+9zl56623wh2mrav/8Ic/6B8UEJtxkxwuRGIZYT821Fhwgwxfgv/93/+tX7uzr85tjsVYcEOLEIs2TLvxtOKJZT9Nf5l2jIBzESLMu/FZaV4fRWpix87Co0iABEiABEggNQnA2tUpRPv9fi2w4j4SriPgTgIGB/BvbA+/+MUvpKamRt+f2svbyjuFaHynw18yLK8PHDjQ6lC4s/jOd76jLRWdO3v37q3dhdiNM2AtHU2ANbhTiE5PT5cPfOAD2i0JfGUfO3ZMcD/77LPPav/Wpn30+Qtf+EKQaGv2mfRb3/qW/OhHPzKbgRRvNQ4fPlxHCL3ga9wCBCrZMqNHj9b7neODf+22DFA66of62muv1Q8A7HMCY41IxWi447DPNfqBhx7OEG/+zvNxmwTaIoA3AOxubExdPEj71Kc+JdOnTzdFTEkg5QlQjE75S4AAkokAvsheeOEFbUUcSb/hs+4b3/iG4LU23Ozan9K2dTzcfkAohi+9eC4CgyfEEM1xM97R0JE2EmnFY8bVkX6aY5lGT8ApQpsW8AO5rWAXqFHPiNQmbetY7iMBEiABEiCBVCIAowdEe4BbC7y9N2PGDHuxzj/66KN6US9Y7ZoA9x4QGbt3726K2k3xXf6JT3xCC77wZ1xUVKSPgRgL4fmxxx4LagNvBMIyET6b7QFCMVzW2QMEo//93/+1F4XNwy80/MHaw4QJEwQi+6hRo+zFOg8L56997Wva37XZCSEf4tWNN95oigIpRHy4qnCGT3/609olCgRpe4DrPvxW+OY3vylHjhyx75LFixfr7e9+97tBfrLhhuOll14KqhuLDfx+uFVZjON8Jrzxxhv6gQT8WrcVcM/1u9/9LqgK/FoXFxcHlcWbf9DJuEEC7RCAwQt+b+MBmfk9YT8E++BuB25sGEiABET4SeBVQAJJRgDuLOwBN+SDBw9udYNt6uDGH77cQgnRsFapqqoKWIqaY5DC3xWspOMVcLOM1+06I0R3tI1wVjz4QYM+QcCHS5RQN8v4gYEYTehoP6M5B+u2EAgnRLfUCJ/DDSQibhQR8fmChRN+VKFdpIgowz7UQX0GEiABEiABEkglAhBe7r777qAhY80SiJ6hhGhUxBt6MJSwf28ePXpU+1sOaqiNDSyEBxd1P/3pTwWL5xkhGofA0hn3vc5FCc+cORO0EF4bzUe160tf+pLATYQJsASfN29eSCEadbCII9xtwCWePeC+M1QAL7NAIfbj3gPCNQRwpxCN/XC3h3t+WINDVMd9SlcGPDCwzzX68ltlHd1egM9r50MC85ak/dh487efi3kSaI8AHmJh8dZQQjTKsNhqJNd/e+fhfhLwCgGK0V6ZSY4j5QhgZe/nnntOL0CILz5Y+27ZskW78WgLBiw1YDECNxuwgIbVBV7Zu+eee1od5rT2aFUhxgXwdY0FHvDjBjfR+MGBhRWjCe21Ec6K5+WXX9YuTH72s59pqxW8Hgh3G/BliJt/e4AVj9PixL4/knx7/YykDdZpTaAzQnTr1lqX4EcVYntCNcXq1uxYQgIkQAIk4B0CTz31lL5Pso/oy1/+spSVldmLWuUvUj6cr7vuuqBy3JfiPra9gAX5cB83cuTINqvCChoLetvDr3/9a/tmp/Pwhwxh3QS4kYA1Lx5YtxdgLYz7CBNw/46Fxe0Ba8ZA2LaH2267TeD+or0AC3CI3qtWrRLw7qpQpQxeZs2aFXR63F/bLeODdp7fcFqmY76xhow9xJu//VzMk0B7BOCKBw+V7J9r5zHYhzpwq8NAAiSgHrASAgmQQHIRwCIkEEwvvPDCVh3v06ePvjE2fuHsFXCTfN9992m3GE5xFZYa8NsMv254ldGEzZs3a4vq7OxsUxTztKCgQB588EHtFsT5+mSkJ4u0jXBWPHhtMNyPJ1ilQMDHDyDzpNtY8WCl5GhCpP2Mpk3WdQ8BY/1jUmfPzPWDcuSd0Vmf2yRAAiRAAiTgVgJYcNoecB/1sY99zF4UNv+Vr3xF+082FeCzGcIp3thrK2Bh60gCRB/05aGHHgpU37dvn8BCulu3boGyzmRw72gP119/vX5T0V4WLg/3eRDLd+zYEagCQdq+VotzjRfci0NkjyZ0xcKFzv7BotnuymX//v16QclwojpEPfjWtodQCxfGm7/9/MyTQHsE8LcGC7O2FeADHa50YNQEd0IMJJDqBFoeyaY6CY6fBJKAAPy6YYGSUEK06T5u1C+//HKzqVO8yrd8+XLB62xOIdpe0emvDmLZrl277FVimn//+9+vX2e68847w7oZae+E0bTRFVY8pv/R9NMcwzQ6AvG2io6uN61rG6vqtiyrjUU1XYC05scSEiABEiAB9xCAeGoPsHYO5TrCXsfk4RYNCxfag3NxQ/u+juSxgKAz7N6921nU4W0sSGgPEJJh8RhphAGJPTh5OtvHfWR7Yr29Pbfkr7nmmlYGH07LZ3tf//znPwe5FszNzRW8DeoMTj6x5u88H7dJIBwBXIs///nPW7mkCVUfvwFgVAaDLwYSSHUCFKNT/Qrg+JOKQHl5eUQ3+s6VeiEqO2/6Qw186tSprb5I4Ts6HgE3p/CljDF1NETbRmeteOz9NFY89rJw+Wj7Ga4dlnubgF2kbstXtRGsYfmFYxhIgARIgARIINEEnOKxU1xtrz9ONxrO9to7vr398B/tDLE0sHCKoXBRUlpaGnHEwoX24BSj4UbPHkKtY2Lf79Y87lluVQsZ2gMWTNy7d6+9KJB3+tTFGi54s9AZ4s3feT5ux59AR+5o8Ru3qwN8o8P1TCR9QR38hgxl7d/V4+D5SSDRBChGJ5o4z0cCCSDQs2fPoLPYFz8J2uHYwKuLsECwh/ZeObLXjSYfi9cko23DeaOfKCueaPsZDUfWTQ0CEJ2NWA0ROhKx2hyTGoQ4ShIgARIggUQRgPBidzGB87pNjO7evXsr/82xMrCAoBRr8dy+QDnEKqzrYg9YHDJZA8Q63LuYALd58B3tDHDVsmLFiqDiUAsXxpt/UAe4kTAChU3pUizN18lqK00OK3X6tDq7PcKz+krxSd35XlVY8XMlGcnA8WAFi7ZGGxYtWiSzZ8+O9jDWJwFPEaDPaE9NJwdDAs0EnIJyNFxw7KlTpwKHRPKUN1DZ5RnnD4eO/HDaunVrYJTO9gI7mCGBBBMwFtImxekhWJuAz7H5LJu8SU0dpiRAAiRAAiQQCQH4X4Zgag+9evWyb7abx1om9hDrRb3MA1z7OZx9tu+LJo/x19bWRnNIVHX37NnTapG/UJbeUTXahZX79u0rl112mWCxcBNgAQ3f4fb7Fqf7DrhzGTdunDkkkMabf+BEzCSUQLoSoj9a10sezdwrB8SSuVbbttJTmnJlSENrq/lEdvrs2bPyyCOPtDolLPfNOkx4GBPKf3s8/4a06hALSMCFBChGu3BS2CUS6CwB5w1+NO115thozpPouslgxZNoJjxf6hDAjz37Dz77yI1IjTIjUNtTe13mSYAESIAESKC4uLgVhGjFZPt3Dxpra02TVieLoACLhcEC1x5CuXuw7480j4W/nQGLhMPdXUdDdXV14FBYdTtDtHydx3f1Niyc7WI0jDuwCKFZB+fcuXMCf9H2EM6VQbz52/vAfGIJXFlfJtlKlP595n7ZJw0hT56pLKNvbOwhH6irUDXbFqxDNhDDwlC+6dE8Fu00YvQNN9wgl156aQzPyqZIwBsEKEZ7Yx45ChIIIhBOdAqqFGbDeaxzO8xhri9OBise10NkBz1JwP4Zt+ftg7WL0/a8vQ7zJEACJJAqBGDR5tWH95HMId6iKysrE9xbmRDt4oBO/82x9omMvsEQwR4GDx5s3+xwHouFYzHB9957L9BGUVGRzJo1K7DdmQxEcyff7du3d6bJsMc6HwqErdjJHVdffXUrZrCENmL0c889J0ePHg2cBQzgLzpUiDf/UOdkWWIIQFy+pL6XzGwolb1ptVIvTcEnVi6iy5qypZtQxgoGwy0SSD4CLc6bkq/v7DEJkAAJREwgGax4Ih4MK5JAgglApI7UVzUXVkzw5PB0JEACCSXw9ttvy5AhQ+T1119P6HnddjLna+fR+mN2itH9+/eP6RCd/cH32KBBg2J2DlwD9rBu3Tr7ZqfzTuHc6aO70yc430CsXJe01x+4DrvtttuCqv39738PCNBOFx0f/vCHW61jYz843vzt52I+8QTSlYuOysZuUtOYFxyb8ihEJ346eEYSiAsBitFxwcpGSYAE3EbAWPHY++U2Kx5735gngWQggB/3RqiOVKw2xyTD+NhHEiABErATgBB97bXXaotgvJ6dyoK0UzyeN2+eHVWbeVgUO9fdiLVl9KuvvhrUB6wT0pk1VYIaUxtOMRQuJyJdMNzZVqhtpxj9wgsvCFxZdDbgO9geYtGmvb228hCj7QsZwt8uXHNAaH/ttdeCDg3nosNUijd/cx6mJEACJEAC8SFAMTo+XNkqCZCACwm43YrHhcjYJRLoFAEjPOPHpxGrMzIyBDEzM1On8BOKCKsp1HH+UO5UB3gwCZAACcSIgBGije/eM2fOSCoL0k6xdM2aNfLiiy9GRPuHP/xhK+HW2V5EDYWphDl69NFHg/YOGzYsaLuzG04xdMuWLfLNb36zs80GjnfygAHFE088Edjf0UxpaWnQoXZXK0E74rBRWVkpV1xxRVDLsIj+3e9+F1hkGTunTJkiI0eODKrn3Ig3f+f5uE0CJEACJBBbAhSjY8uTrZEACbiYgNuteFyMjl0jgbgQgPBsF6ohStuFaiNcU6yOC342SgIkECEBuxCdmZ0tt9z3demmFrFLZUH6Yx/7mBQWFgYRfPjhh1stGhhUQW1A/HSKqvAbPGrUKGfVDm9///vfD7h/MI188YtfNNmYpPBnDL/O9vCDH/xAFi1aZC9qN//SSy9p4fXw4cNBda+//npxLtT3yCOPyP79+4PqhdvAw4GJEye2ekBgXygRx0LkXrt2bbhmYl6OhQztYdWqVfLQQw/Zi8RZJ2jn+Y148w91TpaRAAmQAAnEjgDF6NixZEskQAIuJ+C0MnGTFY/L0bF7JJBwAsaq2gjWsJy2i9V2y2paVSd8enhCEkgZAnYhOisnR76pFlq77ZsPyreffyGlBemePXvKPffcE3QdgBUWqjt06FBQudlYvny5XHDBBVrEN2V4IPm9733PbLaZwrUHLJDDhdOnT8sdd9wh3/3ud4OqwLWKWSgvaEcnNrBg4U9+8pOgFhobG+Xyyy+X+++/X9CXcAH1IEKj7nXXXSebNm2Spqbghdp69+4tDzzwQFATEKLHjx8vThck9kp79uyR//f//p+2Ll69erWcOHHCvlv69esXtI2Ne++9N6QLEPTJuQhkq4OjLLjyyisFYwsXsMbLjTfeGG53oDze/AMnYoYESIAESCAuBLgMaVywslESIAE3EoAVD6xKzCu26COsePBjAGJWuJAIK55w52Y5CZBAeAJGsHbWsCy13LoK9hR5E531uU0CJEACoQg4hegHn31Wxqt7BoQRM2doQfrea66WM6dOaZcdz6r9sRY9Q/XLLWWf/vSn5bHHHpPt27cHugTf0VOnThXcc40bN0569Oih9y9ZskR+/etfC/wE28NHP/pRGT16tL0obH7FihUyfPhwmTBhgnb3AGEVbidg3QsDg5dfflm2bdsWdDzesPnOd74TVBarDbhpgZj8nHpAYQJ8MONe8/e//71AeMWiicYfNnxlw3Ia/XRaQpvj7eldd90lf/jDH2TlypWB4oMHD8o111yjxz927FgZMWKE3odxz507V/sxdwrbgYNVBr6z8aagXdRHfy655BKBtXH37t219TqspVH+5S9/Wb7whS/Ym+hUHvfb//Ef/xHWpclHPvIRyVZvH0QS4s0/kj6wDgmQAAmQQMcIUIzuGDceRQIkkIQEjBXPV7/61UDvjRXPk08+KdjvDLDiufnmmztsxeNsj9vxIQArWQYSMAQgUiOY1JSb1IjU2DYCtT019ZiSAAmkLoG2hGhDJdUF6aysLPnZz34mH/rQh+TkyZMGi+zcuVO+9a1vBbbDZSDUPvjgg+F2hyzH32oI24jtBXwHwI+z001be8dFsx++qSHsOl1dQHj+zW9+E01TrepCuP35z3+urc2PHTsW2A+xGf65I/XRHThQZdDmt7/9bS0828uXLl0qiIkIWMgQfYCFuDNE4qLDfkw8+dvPwzwJkAAJkEBsCdBNR2x5sjUSIAGXE4AVT1VVVVAvjRUPfrA8//zz2moFq3vDv+DFF18su3btCqofjRVP0IHciCkBCNAmxrRhNuZ5AsaiGqlZWNHuAoS+qj1/CXCAJNAmgUiEaNOAEaRT1Yf0rFmzBLxgrRxNgCAJK2Gn3+Vo2mirLix8YakOlxXRhFACaVvHo/8YP1yD5Ofnt1U17D4ssB3OGhhuOWD1DavlaENJSYm2hHYeB4vi97///c7ihG3DTcdVV13V6nwzZ84Up0u9VpUcBfHm7zgdN0mABEiABGJEgGJ0jECyGRIggeQgYKx4nD8YjBXPBz/4Qf2K7cc//nH5n//5n1avk3bEiic5yLi7l0Z0tqfu7jF7l8wEjFgdSqjGNUixOplnl30ngbYJRCNEm5ZSXZCG5TEe7H/pS19qtaihYWTSyspK+eMf/yi//OUvJTc31xSHTJ0LJEKQxTkgNIcLsPyFq5TFixdrNxnh6oUrb8vXc7hj8DDz85//vBaNb7nlFqmoqAhXNVAODnB/gesNVtXO+9JARZWBKxK4/XjhhRe06B9OuMYx+P7CAwIw3rp1q0yfPt3eVCD/17/+VVtuh3or0FTC9x18ONuDc05wX92REMoCOlRZJG3Hm38kfWAdEiABEiCB6AjQTUd0vFibBEjAAwSMFQ/8GUbzSiKseLBSens/njyAqEuHgB8/DCTgZgL4sY9g0lB9tbv9QL4tH56hjmcZCZBA4gl0RIg2vTSCdKr6kMZDuoceekjHHTt2CBbPW7Vqlezdu1dg+Qu/0KNGjdI+pA2z9tL77rtPEJ0BZXDTgQUNEY8cOaJ9M8M6G36q8/LynIdEvH1K+f+2BwidkYby8vKAaw60s3nzZr04Idx4QLStUm/mmQhf2tGGSy+9VBDxfQLGGzZs0GOHCw9YG+OhQE1NTcT3qRDO4WIFbWERxe3K9zfuwWBR3bdvXxk2bJh++GrvJwT0WPiQhj9t+NeOZYg3/1j2lW2RAAmQQKoTiPzbNdVJcfwk0AUEnNYHHe1CQUFBRw/VN8+hDnb2rT3LCGf9UG22VxaLNsw5jBUPVip//PHHgxY1NHVMCusVLH5zww03mKI201j2s80TeWAnhWcPTCKHEJKAsa42OyFI4/VvitKGCFMScBeBzgjRZiQQpG+572vy+D1f1WtNfPjDH5aNGzd2Shw1bSdTioUFEa+99tq4dDsnJ0fg0gEx1gECsj1gHB0JEMSxwCBirAPe2qmurtaxs23DkhwCNqKXQjz5e4kTx0ICJEACXUXAF+snkl01EJ6XBEiABDpDIFZWPJ3pg9ePpfDs9Rnm+CIhADG6oaEhkqqsQwIkkCACsRCi0dV18xfIPVdfJbVqMb9u3brJM888o9eeSNAweJpOEsCDA1hv28NTTz0l1113nb2IeRIgAUUABj0PP/ywwCIdfs2TOdx9993yxBNPyPDhwwWL13c2zJkzR973vvfpZuBeB280MJAACQQToGV0MA9ukQAJpCiBeFvxpBpWCs+pNuMcb6QEYNGG174pSEdKjPVIIL4EKETHl6/bWj948KDuElxR2ANcfdx+++32Ip2HixEGEiABEiABEiCB2BKgGB1bnmyNBEiABFKSAMXnlJx2DrqDBMzCiHDbwUACJNB1BChEdx37rjrzb3/7W7n//vv1wn5jxozRCy7CNcebb74pe/bsCerW1KlTZejQoUFl3CABEiABEiABEug8AYrRnWfIFkiABEggpQhQeE6p6eZg40QAfjopRscJLpslgQgIUIiOAJJHq+Bv7xtvvKFjuCHib/Sjjz7a5kK14Y5lOQmQAAmQAAmQQNsEKEa3zYd7SYAESCClCVB4Tunp5+DjTICCdJwBs3kSCEOAQnQYMCzWBHDvA1+4Tv/RxEMCJEACJEACJBAbAmmxaYatkAAJkAAJeIEAfoDZoxfGxDEEE7AsS+wRe+vq6mTfvn2tnWUGH8qtGBOAuw4GEiCBxBKAEI2FpY4fPy5ZOTny4LPPyvjLL4+6E1ysMGpkrjggNze3zX5ccMEFsnjxYvnMZz7TZj3uJAESIAESIAES6DgBWkZ3nB2PJAESIIGkJ0DL56SfwnYHYITnpqamgAiNg7CAnhJlrGXLlklFRYUsWLBA7r333tt79+49od1GWSEmBHw+X0zaYSMkQAKRETBC9IkTJyhER4bMc7Xuuusu+fd//3fZuHGjHDhwQA4fPqwXlR0yZIgg5ufne27MHBAJkAAJkAAJuI0AxWi3zQj7QwIkQAJxIkDhOU5gXdZsOPFZWT5bs2fPlrlz58rSpUtl27ZtAoHaHvbu3Tv+b3/7G31k2qEwTwIk4AkCFKI9MY0xGURxcbFMmTIlJm2xERIgARIgARIggegJUIyOnhmPIAESIAHXE6Dw7PopilkHIT7brZ6xfe7cOXnttdesOXPmyNq1a2XFihX6lfT2TooFnU6fPi15eXntVeX+GBDAXDGQAAnEnwCF6Pgz5hlIgARIgARIgARIIFICFKMjJcV6JEACJOBSAhSeXToxcehWOKvnHTt2aOH5lVdekZUrV2qr57aEzqKiIhk8eLBMmDBBLrroIn3MQw89pF9X3r9/v6XEaPqPiMP8OZtsa46cdblNAiTQMQIUojvGjUeRAAmQAAmQAAmQQLwIUIyOF1m2SwIkQAJxIEDhOQ5QXdxkKPEZlstKdNYuN9avX6+tns+cORN2FH6/X8rKymTEiBEyefJk/WpyTU2N9OzZMyA4q/METHSPHTsWti3uiC0Bp5uU2LbO1kiABChE8xogARIgARIgARIgAfcRoBjtvjlhj0iABEhAE6DwnHoXglN8hli5efNmbfWs3G7IqlWrZNeuXXohwnB0sPgSFmGaPn26tnrOysqS6urqIPHZeezEiRMFonVjY6MsWrRIxo8f76zC7RgTwFxTjI4xVDZHAjYCFKJtMJglARIgARIgARIgARcRoBjtoslgV0iABFKXAIXn1Jt7IzzbU1glq0UGLSwyuG7dOlm9erX2/xyODgTk3r17a6tnLMYEURkuOAYOHBiweg53rL1cCdi+AQMGWBs3btSLG9r3MR8fAj6fTzIyMvSDBfs1gDwDCZBA5whQiO4cPx5NAiRAAiRAAiRAAvEkQDE6nnTZNgmQAAmEIEDhOQSUFCgygqNZbLChoUGUmw1t9fz6669rq+e9e/eGJQHxsqCgQIYOHSoXXHCBzJw5U4uZ7Vk9h23QsWPs2LECMXrx4sV6EcPc3FxHDW7GmgDmFNEZzLXiTJ31uE0CJNCaAIXo1kxYQgIkQAIkQAIkQAJuIkAx2k2zwb6QAAl4mgBEp7S0NP1qfjgRytMAUmxwRkg04vPBgwefmjdv3k3PP/+8tnqGv+f6+vqwVNLT06VPnz4ycuRImTZtmowZM6ZDVs9hT+DYAX/Sf/7zn7UbkH379ln9+/dvrZI6juFmfAiE+/tgrilnGp9esFUSSD4CFKKTb87YYxIgARIgARIggdQjQDE69eacIyYBEkgAASM8G1EJKYO3CUAgNMJzXV0dXGxoq2clQGt3G4cOHQoLANdHYWEh3GvIjBkz5JJLLtE+nGNl9Rz2xLYdo0aN0lsnT54ULmJoA+OirPl74uySU5w228563CYBLxOgEO3l2eXYSIAESIAESIAEvESAYrSXZpNjIQES6BICRiCC1bPJd0lHeNKEETBinxGfd+/ebUF0fvXVV2XFihWyYcMGvRhguA7BV3Dfvn211TMWGhwxYoS2eob/527dunXJkwsI4Vj8EGI0fFVzEcNws+e+8nB/d8x16kzdNwL2iAQ6R4BCdOf48WgSIAESIAESIAESSCQBitGJpM1zkQAJJD0BI/o406QfGAfQJgEj5kF8rq2tlZUrV1pqoUExvp5PnDgR9nhcK8XFxTJo0CC9wOBVV12lH1ok0uo5bOdsOyCCDxs2zIKoA0H9tttus+1lNhkJmL9Tzr6b6xmpeaDirMNtEkgWAhSik2Wm2E8SIAESIAESIAESaCZAMZpXAgmQAAm0QcCIObR6bgOSB3cZkQ5C3a5duyxYPM+ZM0eLtFu2bNECXrhhw+q5qqpKRo8erX09Y8HBoqIi6Uqr53B9dZaPGzdOjBh96tQpycvLc1aJ2TYYI+AzxpBYAubvGs7q9/sDJ7eL1PZ8oAIzJOAyAhSiXTYh7A4JkAAJkAAJkAAJRECAYnQEkFiFBEggNQgYgcaZpsboU3eURnSD8AwXFUuXLtW+nt944w1Zu3atnD59OiwcPKSA1fOQIUNk0qRJMmHCBOnevbu4zeo57AAcO7BQ4i9+8QtZtWqVYBHDAQMGxE0pBu/GxkbdA/OZ40Mfx4QkeNPMg/O05jPiTJ31uE0CiSRAITqRtHkuEiABEiABEiABEogdAYrRsWPJlkiABJKIgBFdnGkSDYFd7SABI6hBCFVWzhZcbbz88suyfPly2blzp2B/uJCZmamF5jFjxsjUqVNl8ODBSWP1HG5M9nKMB58JiPJHjx6174p5Hha5ThcRZm5wMvQD20jNtsnrAv6XMALgHoq9mS9nmrCO8UQpS6CVEP3cczL+ssui5rFu/gK55+qrpFb9zVOuiuSZZ56Riy++OOp2eAAJkAAJkAAJkAAJkEDkBChGR86KNUmABJKUgBFSnGmSDofdjpKAEcogsCpfyNbzzz+vFxpct26dnDt3LmxrsNLt0aOHwM3G5MmTBQJ0Mls9hx2obUdZWZlUVFTInj174Bdb+7i27Y551gjS0VhEYz5NCCWQmn1M40/A/E21n8nMj/nc2VN7PeZJoKMEKER3lByPIwESIAESIAESIAF3EKAY7Y55YC9IgARiSAACiV3comAVQ7gub8oIX7B63rZtmzV//nyZO3euzJs3D24n2rR6zsrKkv79+8vYsWO1+Dxw4EBPWT1HMnVYxHDkyJEWxOhFixbJJz/5yUgO63AdfE4Rown8PEdDK/F1zfyY1N4D8/l0pvY6zJNAWwQoRLdFh/tIgARIgARIgARIIDkIUIxOjnliL0mABMIQgOBhohGgw1RlsQcJGFHryJEj2uoZ7jZmz54tGzZskPr6+rAjhkVuSUlJwOpZCbCet3oOC8Ox45JLLpGXXnpJli1bJjt27LD69esXN7/RjlNz0+MEzN9q5zDN59iZOutxO7UJUIhO7fnn6EmABEiABEiABLxDgGK0d+aSIyEBzxMwQoYz9fzAOcAAAYhVDQ0NWiTFAoPPPvusLFy4UA4dOhSoEyoDq2e4n5g4caLMmDFD1MJ8KWf1HIpLqLJRo0bp4k2bNmnWoeqwjARiScD8Tbe3ic86glOgNuX2usx7nwCFaO/PMUdIAiQQPQEYY2DR7HDhu9/9rtxxxx3hdruqfPv27TJ9+vSwfVrwzy/LuP7bgvafyb5BzmbNDCrjBgmQQHIQoBidHPPEXpJAShKAQGGsnUOJFSkJJYUGbUSoY8eOwdJZu9z417/+pcVnCNLhAq6ZoqIiGT58uMycOVOGDRumrZ5Rplxv0Mo3HLjz5eCFhbzOnDkD0V+7LmnnEO4mgZgTwN98BJPaT4C/DWbxS/N3wr6feW8RoBDtrfnkaEiABGJHAN+BZ8+eDdsg3NYlS8BY2lrLRaRJfFIXNByfryloO9EbaiF0fb/sPC+EdROU20BZs2aN2QykuNeGe0AGEkhVAhSjU3XmOW4ScBkBIzbbxWeXdZHdiTMB3ITW1dXJu+++ay1YsEBefPFFvdDgiRMn2jxzdna2tnqGRS/EZyw4iAAxGj6Q2zyYO1sRADPF0IKbjvXr1wvcdjCQgJsI4PsCrnbsAX8/EJA6o70e88lFAL7rr732WsH3QFZOjjz43HMy/rLLoh7EuvkL5J6rr5JatZAtBIBnnnlGLr744qjb4QEkQAIkQAIkYAjASOYrX/mK2QyZfvrTnw5Z/v3vf18++9nPhtzHQhJIBQIUo1NhljlGEnAhAYrPLpyUBHcJgtFJJQzA6hmLDMLlBgRQWDyGCxCgiouLZcSIEVp4Hjx4cMDquXfv3hSfw4GLsnzcuHF6LtauXSunT5+W3NzcKFtgdRJILAFjQW1Sc3anSG3+vphyU4+p+whQiHbfnLBHJEACJEACLQTuvPNOuf/++6W2tralMIIc7qs/9alPRVCTVUjAuwQoRnt3bjkyEnANAQrPrpmKLusIhB8sKPjee+9ZS5culVdeeUXw6vWKFSva7FOOsoSDyDx69Ggd4fMZgVbPbWLr9M6pU6fK448/LuvWrYM/bkvdNNPCvNNU2UBXEDDitEmNRTX+JoWKXdFHnrM1AQrRrZmwhARIgARIwF0EMjMz5c9//rNcd911UXUMx2RkZER1DCu7l0CdehaRluaT9Kzmt/Tc21N39YxitLvmg70hgaQnQOE56acwJgOAyHP06FFZvXq19vU8e/ZsmT9/vhZ/wp0A1w6snseMGaMXGRw0aBCtnsPBinM5/EZjPnbu3CnJ5G8wzljYvIcImO8q55DwtwuBQrWTTOK2KUQnjjXPRAIkQAIk0DkCV155pVxxxRXy8ssvR9TQVVddJZdffnlEdVkpOQi8uyzdOtiUJjnHLek7vElKqxp9agkjhnYIUIxuBxB3kwAJhCdgfsw70/BHcI9XCWBBQWVBe/uSJUse+8c//qF9PW/dujXscHHNwOq5T58+WnyG2w0s4tG9e3daPYellrgdFRUVUlpaKnv37tWLGNbU1CTu5DwTCXQhAfxtQjCp6YpTpKa7D0MmtimF6NjyZGskQAIkQALxJ/C9731Pv/UJAw5zv+A8K+4r0tPTBXUZvEVg77Y0Se8nUlvok427/YhWSVqTVI9u9OXk01o63GxTjA5HhuUkQAJBBPAFGioGVeJGShDATRZW7t69e7f15ptvyuuvv67dbYRaKdoAwbUDoXn8+PEyffp0GTBgAK2eDRwXpljEUD0gsOBOZePGjVzoy4VzxC4llgD+hiGY1O7uA+X4uwiBGmm4H6KoxxCeAIXo8Gy4hwRIgARIwL0EsIbNXXfdJY8++mjYTuLeAIsZDhw4MGwd7kg+AmdPqYcMSoh2BlhKH1yRZuWeapLBk5r+mt+z6WZnnVTfphid6lcAx08CYQgY4TlNvWNi8mGqstjjBGD1DJcb69evt9544w1ZvHixYPXocAHXixIztdXz2LFjBS4faPUcjpZ7yydMmKCtPFauXMlFDN07TexZFxMw4jRSfF+aYARpI07bU1OHaQsBCtEtLJgjARIgARJIPgJf+9rX5Mknn9S/mczbU2YUuD+AUc69995riph6hEB2niWjB9fLrg1+OeJruQ80wzudlybL16fdlF/bZA2f0ejL6kZLacOGYrQhwZQEUpiAEZvNj2nz4zqFkaTs0CGYnDt3Tvbt22dBHHj++ecF1s87duwIywQ3WD169NBWz9OmTQsIz0VFRXrxQVjZhj2YO1xLABbsCKtWreIihq6dJXbMrQTM96hJTT/torQ9b/anYkohOhVnnWMmARIgAW8RwO+eBx98UFs/O0cGcfqb3/ymFBYWOndx2wMEinpZvqJeDerNOJGDO/zW1lVpcq44+OfvyZw0WbQ0zepf2iB9hjQF7/QAg44MgWJ0R6jxGBJIYgL4YWyisXpO4uGw650kgJuj2tpaeffdd6158+Zp4XHFihU6hVDiDLh2sHI0xGe42hg+fLiMGzdOW0EjT+HZSSx5tysrK7Vvu23btmn3A8k7EvacBNxDwHz/OntkhGmUp5K7DwrRziuB2yRAAiRAAslK4LbbbpPHHntM4LrQ/I7C9/7o0aPl1ltvTdZhsd8RElBTrRcvVAsYSu1Jn2x6228dywy2lt5yIF1OHGiyhs1sSHlBmmJ0hBcWq5FAMhIwP3qdaTKOhX3uPAHcFNXX18uRI0du37Bhw2MLFizQvp5nz54tp06dCtw02c+Ea6egoEAgTI4ZM0ZbP/fr10/Kysq0AE3x2U7LW3k8cKiurhYsRKn8g+u8t0bI0ZCAewiY72n0yOnuwwjV9tQ9Pe94TyhEd5wdjyQBEiABEnAfAawn8cMf/lBmzZoV1Lkf/OAHQd/tQTu54UkCWLhw9KwG35kTPln5it+q79EiSh+UNHl3md8aML4xpQVpitGevPQ5qFQlYH7MIqXVc6peBS3jhnBRV1cnW7ZssebPny9z5szR/p4hLDp9mZmjsrOzpby8XODreciQIdr6uaSkRIvRffr0SekvTMMoVVI8aFCWHNbmzZu1ID1jxoxUGTrHSQKuIWC+150dsgvT9ryznlu3KUS7dWbYLxIgARIggc4QwP3yjTfeKE8//bRuBvkLLrigM03y2CQm0K3AkmnXN/i2rfJbO4/7AyPZc9ovlaebJCu39ZvIgUoez1CM9vgEc3jeJWB+oDpT746YI2uPAASJs2fPirJ6tmDtvHTpUlm+fLkWEsMdqwRHqaqqEvgHnjJlilRUVAh9PYejlXrlkyZN0jfTavFKLmKYetPPEbuYgPnuD9dFI1Bjf2NjY8g3X8IdG+9yCtHxJsz2SYAESIAEupLAww8/HBCjkWcggerRjT7/O5a17WCLBLtxid8adVHquutoIcHrgwRIwNUE8MPTWDu39yPU1QNh52JCAEJDQ0OD7N+//8jatWuL8eMe4vPbb7+NxeZCngO+nmHlPHjwYO1uA/7L4IoBltBY4ZkuN0JiS+lCLEiJAN93hw8ftnJzc2kdn9JXBAefLATs9wlOtx9GnMb3SKIDhehEE+f5SIAESIAEEk2gb9++8rWvfU2v0wRXhwwkAAJ9hzb59my0rLruzT+njqalSUO9SHpGavKhGJ2a885Ru5yA+RFpF59d3mV2L84EIB6YhQbffPNNeeuttwQ+n3ft2hXyzLh28vPzpXfv3jJs2DAZOXKkXmiwZ8+euozCc0hsLHQQyMvLE0QuYugAw00SSFICuL9IT2+5/YcgDbdNZtHEeA6LQnQ86bJtEiABEiABNxH44he/qMVoN/WJfel6AgPHNcm67S3uOvZvS7N6D2pKSWOflrvRrp8X9oAEUpIAheeUnPZ2Bw1hYN++fU+tXr36JmPxrCygZfv27SGPzcnJETyFh9XzoEGDdIpFBvE0nlbPIZGxMAICuHZwTa1bt04vYgiXLgwkQALeIYB7ECy4hAeY8RSlKUR755rhSEiABEiABNonoN4mbL8Sa6QcgR6VatHC7f7Aq2lKjBYlRqccBwyYYnRKTjsH3ZUE8MMPP/qM1XNX9oXndgcBWKbB8lmJz0eWLVtWvGLFCm35DJcbJ06caNVJXEOwVq1SwuDUqVNl+PDhWoCmr+dWqFjQSQKwoB8zZoylrktZuXIlF2DpJE8eTgJuJWBEaaTGjUes+kohOlYkE9vOyZMn5cCBA4k9Kc9GAjEigDcDsSg3AwmQAAm4iYC6zZLck5aczm82hj56tDl1Ux8T1ReK0YkizfOkJAEjPCM1MSVBcNBBBGB9pvw612zatGmLWmxQC88Q+nbs2CFHjhwJqosNPLiAX2f4eMaCcgMHDtTWzhSfW6FiQRwIXHXVVfLEE09of+Tvf//7LWWBn7p3TXHgyyZJwE0E8H2DECtBmkK0m2Y3ur4899xz8olPfCK6g1ibBFxCYP78+TJx4kSX9IbdIAESIIEWAoWlTXK6ttlVR3pF6v6sohjdck0wRwKdIkDhuVP4PH0wftSrhQafWrJkyU2wdl6+fLm2MlVlrcYNIQBWz7169dLi8+TJk6WiokJqamro67kVLRYkggCuPVyXW7dula5Y8CwRY+Q5SIAEWgjg827e2GkpjT5HITp6ZjyCBEiABEiABEjA2wSycpWXjtqWMabqIoYUo1uuAeZIIGICxsrZCNA4EHkGEsAP+GPHjsnOnTst+HfGYoNwcaCEaDl9+nQrQFhIql+/fjJkyBDtmxcuNyA+0+q5FSoWdBEBLHqJa1RZ8uOhis53UVd4WhIggQQRgCDdmUUNKUQnaKISdJonn3xSsDYFAwm4mYBaZ0UeeOABN3eRfSMBEiABpRsFQ3BuB+/17hbFaO/OLUcWQwJGfMaPM5OPYfNsKokJwOpZ+VR8ZNWqVXevX79eWzwvXrxYL/bmFJ9x/RQXF2sxb+zYsdrXc0lJiQwYMIBWz0l8DXi96/AbPWrUKAuvbL/33nteHy7HRwIkcJ4A7nc68jYEhWjvXUIzZ86kGO29afXciGDIwUACJEACbidQfy5YjfanqCqbosN2++XJ/nUlASM2IzXic1f2h+d2FwEsKKh8O1ubN2+WV155RSBAI4Za5Mfv92tfz4MHD5YJEyaIEvTo69ld08neREgAvsohRm/ZskVb+HOF8AjBsRoJJCkBcy8UbfcpREdLjPVJgARiRQD35gwkQALxI7B/m9/KzGqS4gorWE2N3yk92fLZ0y34rHpPDjGiQVGMjggTK3mVgPmxReHZqzPcuXEZlxsbN2604KJg6dKlMm/ePFHbUldXF9Q4HlzA1zMWGoTwDPEO7g3gbxevtvbp06flWyfoSG6QgPsJTJ8+XXdy7dq1cvjwYUuJ0bye3T9t7CEJdIoA7o2iCRSio6HFuiRAArEmcPLkyUCT3//+9+X++++XYcOGBcqYIQES6ByBtW+nSXqFX6x3xCrPbZR+I5p82XnK/zFDVAQaG1T187dYjQdTlx/F6KguG1ZOZgJ24dmeT+Yxse+xJYCbWOWGwNq1a5e89dZbAuFt5cqV8P8s586dCzpZRkaGFp4hPuNGF2Jd79696es5iBI3vEIAr77iocru3bu9MiSOgwRIIIYEKETHECabIgES6DSBZ599Vr/RddFFF8lnPvMZueqqqwRvLDKQAAl0jMCZEz4lRDcrqL4MkX11ftm33G/lnrRk8OTGv+b3bLq5Yy2n3lE+6M/RPe/3JCSK0Z6cVg7KLjbb8yRDAoYArJ6Ny43ly5fLwoUL5e2339ZuCE6dOmWq6RQ3r/DtrKybZcSIETJy5EgtRMPXMwS67t27C/zqBh3EDRLwEAFc44MGDZJ33nlHL2LYt29fD42OQyEBEghFIFJ/0RSiQ9FzVxketv/4xz+OqlNYDM6EhgaYcTGQQHIRwN+w1157Tcfq6mr51Kc+Jbfeeqs2HEmukbC3JND1BE4cSgtpwns63yfL16ffVNzQaA2b0ehLV0I1Q9sE0sCosbmOEfjbPsKbeylGe3NeU25UEJyNf2cjPqccBA64TQIQmPft22cdOnRIlixZImvWrBH8gN6wYYPU1wc7a0pPT5eqqirBjeuQIUNkzJgxUlFRQavnNglzp5cJ4GGL+hxYv/vd72TPnj0yceJELw+XYyMBEjhPAPdWJhhx2qQopxBt6Lg7xT3Qt771rQ530nmf1OGGeCAJJIgAXHRs3bpVnn76aamtrZVt27bJ3XffLQ8++KDccsstcuedd9KFR4LmgqfxBoGymkZfzz5N8t6mNGvH2jRpOm8lbUZ3NN0v8/+SZk27qcGXmRVStzZVUz7NylEIgm3fUpIJxeiUnPbkHrQRm+3ic3KPiL2PBwFYAUF83r9/v8ydOzfg6/nIkSOt/D0XFBQILD0nT56sFxm0+3qm1XM8ZodtJiOBKVOmyJ/+9CcuYpiMk8c+k0AHCETySvvMmTPl+PHjIVt3/hS1byNvtiF0Thg5Qj66Y4c0NTVJVlYW3jbSbRrh26TmRGbbpKacaWQEevXq1W5F3D8xkECyEoALvc9+9rPy9a9/XZ588kn5zW9+I3DDd/r0afnVr34ljz/+uNCFR7LOLvvdVQTSMy3pO6LRp6IcP5B25J2F/uJzxS0vB/v6+mTF7HRr8rX1LYVd1VkXnzc7r0mJ0S0P++tqRTIhUKdYoBidYhOebMM1wrMzTbZxsL/xJQCLn4MHD1pqYTVZsWKFtnaGr2e4FNi7d2/QyeHrGcIz/DvD3cbw4cO1+wH4xEUZ3W0E4eIGCQQIwBoaotGqVatCLWJYpSp+QMUBKuareEJFEw6qzB4Vd5iC8ynKD6gY/CF1VOImCZBAchJw/hJ1bptRpavv5ZzCQrOZ8DScoO0sN9smNR012yY15W5N//CHP8iVV17Zbvf+8pe/yKc//el267ECCbiZAIxKIErfdddd8uKLL2oResGCBYLPq9OFx8c//nEpLi5283DYNxJwDYHC0qbuU65rkoM7/db67S3+2M8W+uTwez6rR4UV7mvfNWPoqo7kdZe/yj65yZz/xCGf1bMy9XhRjDZXANMuJwDBGcFu8WzKurxz7ICrCEB8VhY7WnyeP3++vPLKKwLfhhCeGxvPO2A632P4dIbLjfHjx8vo0aO1u42amhr6enbVjLIzyUAA7mt69Ogh27dvt3/OilTfsWDJ51XsryK8oDlvPo0RJD6ciNg2eTgiRaxTUZkJ6ID82fOxuaT5fwjcR1SEgB1JoAgeCSXWIYEUJxDuXjNceSxwhRKuQ5WFO5epi9SeD1ef5SSQ6gTwpsf73vc+HdetWye//vWv6cIj1S8Kjj8mBEr6NvomFDTVLF2dscU0uHmJ+s1wXbAbTLOPqbLaKdaLPZoXxOTY/jTpWYmfRqkVKEan1ny7brS40Yf4bARo13WQHXIFASV+WVhsEBaZuIGEz+dNmzbphdTsfgwzMzNl8ODBUllZKQMHDtTRuNyg1bMrppKdSGICsC4aOnSofuPg3Xff1T7V1XAuUvFhFburGC4YcbrFbCJczcjLAzdwbRxCEbwNONxFAiTQdQRCCd2hyiLtIdybINrF6UiPZT0SSDUCeCvyRz/6kXzjG98QvCnQlguPq6++Wv9OTTVGHC8JREMgt8jaWpKmrKSbml1PwHVH3Tmf0Hd0aIpp+EW0S/1MqWz+iXRwp08GTAhd18ulFKO9PLsuGxtuso34bPIu6yK74wICTpcbcLvx5ptvys6dOwWCtD3Ar+SIESNk+vTpehESTUGw1wAAQABJREFUIzzDGpq+nu2kmCeBzhOACxv1hoGFzyM+l5dddlmVavUOFdsSojt/4tAtGIE79N7mUlMnWUVwjILW4G3NMPeRAAloAsaww4jSSBlIgATaJgCXHO258MAiiDBoYSABEmibQJ+hTd85uC7tblPryJ40C4semm2mwQRKKi05eP5l0rqeaVKv3gnNyA6u4/UtitFen+EuGp8Rm43FM7YZSCAUgR07dmirZ1g8b968WRYtWqRdbqjFB7UrAPP6Kayeq6urtb9nCNCDBg0SIz7T6jkUWZbFg4CyxL+9rq7uMRXl3LlzOpo8UljqNzQ06EUykYbahkhg6iK151E/1DbKTLvOOvj7Cl/ocKOB1OSx7Syz77PXdZbjuOzsbMnNzQ2KZWVlGiv8LR46dGi1+gwejgdnF7cZyZeZqRNLERxIaA3u4guDXSMBNxAw993oCwVpN8wI+5AMBJwuPNTDdn0vlgx9Zx9JwC0ECno03aP6EhCjT6pfCGU1bumd+/pRNrBRDm5uWcRw62q/NXhSaon3FKPdd10mXY+M8IzUfhOcdANhh+NOACtYKwEr4HID7jaweAhWtz5+/Lh+vRTXEQRoWDdDfO7Xr59ceOGFAj/P9PUc9ylKmRMo3+I1Z86c2XLy5ElBhEU+on3blOO6ra2tFVVfzp49q0VhIwwjNaIzRGL4LEdEmckjxT4IAyhHO8ke4KNdxfxLLrkk1cTorpw6I3K31QdTJ5ZCOEXwtohzHwm4jADuo/BA0TzMRwp//7Nnz9ZvmMGNGR424jsJ+/AdReHaZZPI7nQZAbjwgPuO++67r8v6wBOTQLISaKpV63/lNPe+7qy5JU3W0cS3393LLV/TXMtK69fMad9Zv1TXNkrmeX7xPbs7WqcY7Y55SJpeOIVndBxlDCQQioByrWFB4NuwYYNe9GzZsmXa6tnpckO9/q990ZaXl2uLZ/h9LikpCYjPffr04UUWCjDLggjgR7W63iz1wEMOHDggBw8elMOHD+MBiM6jDHlEuHyBMGx+jCN15u3baNvEoJN2YKMgt0T8/gzxp6U3pz6VV9vpuqw5TVP7zLauq/YZS+aMjHTJzMxojlnp4lM+2hqtetU/NR5fnRqHEsKbIH4rK+2mOiU0KJFcldlFc4jjiM4y+zYsv8EgVMAihvPmzRMlRm9Q+6tC1WGZZwhE8vfX1KEI3rzA5l7PzD4HkrQEzP050ry8PLhWimosd9xxh3ziE5/Qx+D7x7SHAvN9iDSSgHrme9b5veLcF2mbkZyXdUiABEiABBJHwAjROKM/PbLvh8T1zn1nGjKtSTbtabl1Xv1aujXh6gZzT+2+Dse4RxSjYwzUS83hpjNU9NIYOZbYEbBbPcPlxsqVK7VYtXHjxoDVszkbxOdRo0bphQanTZsmVVVVAeGZvp4NpdRK8eNTWWfNUmLoIyqOhygKay2kJh47dkzgvmX//v06hbi8d+9eLTyj7MiRI9pyORJyPp9aOFVFn1pBIs2HmKbFYeTTsS+9udyHBVZRT9Ikw58lOVkFkpWZJ7k53aVbRp5kZ+VJXnaxZGfkq335kpmRK5np2ZKTmS8ZKs1S2zmqPvKF5UXSa3JxJN2LW53GY+rG8KjySZavhAHlnwwhQ7EvymiSrGxlTZfVpBYbUW4/sizxZ6o6ckZq607JubqTcvp0s+U4hPyjR48aH+6PqSYmqdgVfqPRfQbvEojkZtzUabmT7zyPSH49oQ4ilj5HtOcb1DZinYrmaQ7yyhugjioJBPoED6Bgxm0E4LoAMVSwC9Oh9se6LJRAjTITIz2fqW+EcdMuUpSZ1CmYR9o+65EACZAACTQTyCmI5HYqtWmV92/0bVnmsxrLmn+Tnc5Lk53vpFl9hzaZ+1tPA6IY7enpjW5wuLE0bjaMCB1dC6ydSgRg9YybdojOyu+zwOXG8uXLtTgIlxu4kcf1BF/P/fv314Lz0KFDZcCAAQFfz3DFQavn1LlqcE0oNxfaTQtcVRjXGMhDaDZWzLBcRh5lEJghfCKFJW97AVbEWendJDszV4nHOUoEztLicGbG+bL0HLWdo8XibkpYzlaiMYRjiMzZSkzupvIoQ8T+wgolIE/qWgG5vTFHs99fpO5tiqCQtdzj1Ku//QcblOBwSrV0qsV3WXO7hSpBbA4Qs7OUmF0JMbtPmsx7Xf5eWW5JZV8I2HhTRtez3322nMg0wpQE3E0gkmvW1Amt1HVsfPbPTbgWUAfRLSI4+nlQxQMq0hocNBjiQiCU+B2qLC4ntzWK+15nMGVITd5Zx75t6uGeCNF5jCk3qf1Y5kkg1Qg4Px+B8W+9OZBlxp0EcnLNrZI7++eWXo29otG3dFVa4Mtl28F0ySuqt+DGwy19jFc/KEbHi2wStQvB0C5CJ1HX2dUEEYDVsxIHAy434HbjrbfekvXr1wtcbsCCFT8KcMMAP4QQnCsrK2XixIkC34TDhg3TPqBp9ZygCevC0ygr5lnqWpkDFxmIxjUGxGRY1OJawsMK45sZZRClUQYL6HAB11dednfJzS6SvJweyjK5SPKzVaqskvO6KSvl7EJlqVyo/GRmKcvlXJUvUFbKSnhWMUOLz3lSOqpECqu7hTsFyyMg4BSz8Xxg606f7DukFinpJZKj8Cqjcl8DpLLzQXkUUfOC1/VMSXPqV7o3xGvf+dsv5NXXkbJWV/tRbiKqn883H6n/D9y02crsWXUEAwkkFYFIrllTxw0iOOAaUZzW4El1qbGzHSUQSgAPVdbR9iM5LpQ4hzITI2nD1DFiuFP4Rlsooz9xQ4ppogmEus6D+lDzVPPm3r8FFXfVhvq46HvYrjq/G8+r/owwREAgt9CS6pIGgQhtwprNGTIuq+H2/O5NvzJlXkxbRuzF0XFM7RLA63dGiG63MiukDAFj9bxt2zZZu3attn7GgmVYaBACI25Oce0ghdVz3759ZciQITr27NmTLjc8fqXgB4qyVrZ2796trwk8kEDE9fHee+9pVxnwN2xiXV2dXpW8LbE53Z8pJYVV0qOgj/Qs6CuFeeXSXcWivDIpVmlBbi9t4az9KCvr5+5DC6WwhsKyWy41rMm4dVtseqOeZ0mWsrJWL1UEBfUihbJeV25FmsuNKBdUx77RnggO4dsECOAQxbUAjvz51vU2KrU+W7hb7NY1zUmYkoA7CURyzZo6sRTBQSPc58hOCnUQjfBtz1MEt5NiPiUIhBK/Q5XFG0Y4sdCI4uH2h+oX6tqFcXOsKTdiuSkP1QbLvEMgmnnuVn6D1Kq3Kbs6LP5nunWuOE2K6pqkR2WTlFZavsxukXzFdXXP43f+2pPxa9trLcMtx7H9TdZR24+T5WvTHxs3okG8LEhTjPbalRzFeLDSNoRohtQmYKyekW7atElbO7/55pt60cE9e/ZoERE3ubgxKCgokBEjRkhZWZmMGzdOp5MmTaLVswcuIcwvorrhn2WietgwHpbNsIRHhP/vLVu2CB5SwJI53M0i/DE3+2SG3/nmfHpalhQVVkhpcY30KqjWqc4X1kh5ubKkv7SnByhyCLEgcFZ51kVMdIhQBDfdMuKc2Q6k0YrgaedbQqKtwpGiNfWfSbF5PrT1y0ZXNxWZkkASEIjkmjV1YimEt/U5MthQB5EiuCHClARsBMIJ4OHKbYfGNGu/F/3c5z4nn/3sZ/X9KfoBwxn7/rZOjHqIEL6vuOIK/VYn8lj8E7+XTTsmbast7ks9AhCiEY5lpsmx/WmyZb+6ZNS9bL9ejdJncKMvQxlapELw71VvVJSfZ7HffH2nwsg7P8aRFzb4ljyfYdUWtHCDID1pbP2vcpR7RC8GitFenNUIxkQhOgJIHq0Cq2cMbfv27VpgXLNmjcDqGQIjrFph7YybLtyAlZSUyPDhw2XkyJGtfD3T5UZyXiC4ia6trdUuV/AAAhFuMuCf2Vg4wwe4ycOdhjPgBj9dLeaHhfyylS9mLNKXrSLcY+RmFUn3gkpl3axiYV9t5dwjv48MuK6vsxluk4CrCLhNBAcchzU4ilruULHlCB0WwlWrsAJH0Iltu7k05P/mzvj8kSHrsJAE3EggkmvW1KEITp/gbryG2afzBOzid0aG8gsWgzBhwgRBxD2zvf1om+6IcG0/BnnTB1NuUowVbx56LZjxRTOuHj166LVmojkmlnXrakO35lMC9M7jftm52G/1LWyU6tGN5nsl9AEeKC0sFTlyfhzHs/AQp+X+0gPDi+sQcB8+4ep63+J/Zigr+5ZLZeHL6daM9zf4MtTC8l4LFKO9NqMRjIduOSKA5JEqTqtnWLcuXLhQ3n33XS1GYz9usvDFj8UEBw0apF1uGKtnuOBQCwwKhefkvCDUg4Ua5U5jy759+2T//v1BERbPxq8zUlg6OwOuDfhoLuhWqtxl9JLCbmXKXUZPtV0iBTklkpfbQ+fzc5rL+l/b29kEt0mABNoh0FUiOLoVpTW4cySBO+WYiODnWzOiuPNk3CYBDxAIfGbaGIupQxGcIngblwl3JYJAZ4Ro9K8jx0dzDBaJLy8v17/j4snDi6J3LHml+X1SVdwoh/b45FS30G+dQ5Sune+zhl3QYP7Gx7ILrmmrR58mObK3hcF7m9Os3oOaPD3mWMKH04JJ1ypB+jklSPdoxuYv9cnKOenWxGvqPceRYnQsr54kaYtidJJMVAe6abd6hssNWDyvXLlStm7dqoVI+OyFVTxSPEUePXq0jBkzRgYPHiz09dwB4C46RM3prEOHDs2BhTtcaRh3GhCasUigWTAQDyBC+W6GVXNJQZWUFPVTvpv7SU+VlqptWDdnZxZITlae9Lukt2Tm8WvDRdPOrpBApwh0lRDeSRE8MGaK4AEUzJBAWwQi+QFr6iSrCI7xn1ARRnkHsBFBOKjq7FFxh6MuytHGXkc5N0kgJQlA9A4Vvv3tbwtiuKAWNA+3y1Pl6cpitd/IRl+/kc3DOn3MV7PrnbQt++uD/5webEqTw7t9Vo8+lvl76ykOGExpX8u3eW/LehAbV/ulYkBTwA2d5wYchwFBkJ6oBOk3/5Jh+SqbL5Uz+T7Zs8l7wj5VhThcQG5uEk9bo3ni6uaxpHrfjNXzGbVy2ObNm7W/58WLF2urZ2xDfMRcw+oZvp6HDh2qn57D6hlP0Wn1nLxXEIRn5WZlzooVK2TVqlWybt06Pf+Yc7hXQYS7FaTO192wUGCfkuFSVTpaKkuHS2XJCBVHyuAPVCcvEPacBEggqQhQBG95bZWW4El16bKz0RGIRHAxdYJVm+jOE6p2JO8zow4i/YKHIsgyEugkARg+RROirR9N24msm1tkbR0ytdE3RP1p2bEuzdp+uEVyWz/fLzM+hLV3vRnSsyy9iCN8ZyPAqnfzMr81aKL3XZTEckb96pKZcl2D7+3lGYHvsnf3pUtZTZ1gn1eCh4bilSmJ7zgoRseXbzxbN1bP8OeLheTg0/ett97S7jZ27dql/YZhoQ6IkL169ZLx48fT13M8JySObavX4R5Rfp3vVhH+nUVZPGuxGW5WID7D6h1l9oDPNoTmLOXDOSMzWzLTcyRHudgoVVbOfUqGSWXP4VLeY5CM+9B4+2HMkwAJkEDKEKAIThE8ZS52DtSI3G2RMHViKYQHhIM2TkwRvA043EUCXiLQb3iT7/T8JgtW0QhNFWnScE79ZlOirVcDhPhFy9ICA9xb65eee5us7uXetQiPx1xm5ymL+yL1QONYy1fUrvV+q2qUd4R9itHxuHJc3Catol08ObauOa2e4eP57bff1iIk8rCANYsMduvWTft67t27t9DXsw1ikmQhPCth+W640zB+nPfu3St46IC4e/duHfGQwQSfL03ycoqVD2flx1n5ci7IKdW+nLvn91YuNqoEaWlRlQy8rsocwpQESIAESKCLCHhVBAdOv/p9DetuvFZqgvqKkrTzMh/2GetvZ2rqMyUBDxEwAndbQzJ1WhSGtmpHti8g/LRRnSJ4G3C4iwTiRaCk0pKDO1paP1srNXlZsrWlxFu5rFxLsGAj/GSbsGZzhkzKq5ec/Ej+VJmjmML9y9bn/Za/oJnF9tVposRoz4ChGO2ZqYxsIBSjI+OU6Fp2q2e42IDVM1wwwAJWuWOQs+qXrN3X8+TJk6Vfv37a53NVVZXU1NToBQi50GCiZy768ym3Khb8OuOhAiJ8O2NxQfhVQzxy5IicO3cuqOHM9GwpKa6R8p4DpbLHMOlV1F96KJ/OhVhIUMWB1/ULqs8NEiABEiABEugqERzk6Rec1x8JJJSAEbjbOqmp06IQtVU7sn2RKEsUwSNjyVoeJaCWagoK2TneFaLNQKtHN/oOv+CzTue1PKle+HqGNf3ieh/EaobICOAhfmVZo7x3pvnPtq+vT+pqfZKZ4w2GFKMjuw5YiwRiRsBYPaNBLDAIQXLp0qV6kUG434AYmZGRocVnLBgB384VFRXa7Ybd1zOO79Onj7mxxCaDywjAX/OxY8estWvXyvLly/UDBswxLNvxgAERwrPdr3OaMinDooHV5eOlutdY6Vc6SsXRUlhRKL0mFbtshOwOCZAACZAACbQm0FVCOEXw1nPBEhKII4FIfoeYOqkugmMauDhmHC9Gtzbd1BgsHHrZRYd9DsZe3uB762/pVlN5syAN6975z2RYM/+t3pehFn1kiIxAr2rrO++tk7tN7aP70qxe1d5w1UEx2sxqiqR20StFhtzlwzTiM1wuwOoZbhcgTiIPIfrUqVNafK6vr5eysjKZNm2aTgcPHiwDBgyQYcOG0eq5y2cxfAewSKBaUPAR5W7jbswhrJxh1Y4HDGZBSZSbgLcT/GnqYYPy75zu7yaFRb2lf9kE6V8xUQb2nixTPnqBqcqUBEiABEiABEggCgIUwVu7RYkCH6uSQLIQMAJ3W/01ddwggqOfZqFM2Mki1qnYpCIC8mfPR2ybcEJljqh4wBS0k0Ls3qPiDkc9z4vgWPwQb5i6MWQ5rFjPnvZJdgpYB2OhvanXN/oWPiMWfGUjpPcTWTkn3Zp4Tb35fLpxylzVp/zipntUhwJidO1JV3WvU52hGN0pfMl3MMXo+M6ZEZ5xFiM+r1u3TlvFQoDGonNwtwFBEgIlhObKyspWvp5xPF1ugIL7Aj5DyrLZgo9n3PTg4cL69esF84wFBuHvWYnTgY6npfklP6eH5HfrqV1qlJgFBUtGSN+SUTLoA1WBusyQAAmQAAmQAAkkHwGK4BTBk++qZY87QCASAc3UiaUIjq5GYkqKOohG+LbnPS+Cu1WQLigVn2xrmb/NS/3WyAsbzHWCufVsSFcW0NNubPAt+GuGZfVuHvKZfJ/s3+q3etV4w7o37pPnuFKUFOGZQDHaM1MZ2UAoRkfGKdJaRnyG8AwrZwiTECXh89m43DALDeILcurUqQJXG7B6hhX0pEmTaPUcKewurHfixAkLvruNj2fMr1lcEOKz3fI5Iz1Lyor7Sa/i/ioOUHnl37mgUnoiKiG6+n3lXTgSnpoESIAESIAESMArBCiCN88k/GoimLR5i/+TgKcIOCSpkGMzdWIphEcifaGOXfi252Mlgm9R51ip4jwVQwa8rWrWWApZoYsKM7Ms8e9rksayZuvgI8olYyqJsbCQnnxdg2/R0ozAtfTOW2mixOgumpHkOu3Rfb4AN/Q8ryi5+t9WbylGt0XHg/soRnd8Uo3wjBaM1fM777wTsHo+cOCAZGVl6RPAD3BJSYlceOGFMmrUKO1uA76flY9nvZ9WzxqDa/+rra09ovx5F8PdBuLWrVtFCdLw/6xTu/icnZkr1b0nyIDeU6SmfJyUKwE6L6e75GQVStU1vVw7RnaMBEiABEiABEiABDpCwG0iOMaQk6MWzlS34RmZkY0oM0O9Mq5+CUMosQe/0osgaqc160Z6l9KOJM0meBvR25na22GeBDxCwAjcbQ3H1ImXCA4xDj4P4W7kaRV/ouJ2FYMCDMDy8/Pl+PHjAmHaTWHQJEve2dnSow27/cqYybL6DG4y7Fp2ejCX1c2S3rmNsud08yWChfhOHU2blVfcNNeDw43pkPZsUF9Atk9WcZl3rhnH129MubExEkhqAkZ8dlo979q1S/t7hpsGv98vjY2NrXw9w+rZiM8Unt1/GSi3GrPUg4U5r7zyirz22muyZMkSbe0c6uFNms8vNWXjZXT/K2R0zRUy7WMz3T9A9pAESIAESIAESIAEkpxAV4ngwMbFMZP84mH3k42AXaRFHhZfsOr6LxVhG3qbiq0CBOm8vDy9WHyo33GtDkhQQWlVo2/fFp91NKPlKdeW/elyZE+TNXxmg8/5UCxB3UroaSqHNPn2LPMHrHyP7PHNyStWLkwYwhI4d8YnR5TeZELGYWX9ryztvRIoRntlJjmOThEwwjMaMeIzrJ5hFQtfz/v27ZPMzEzt6xlWzxCbL7roIhk5ciStnjtFPrEHQ3RWT8vn4Ik5LNlXrVqlhedly5YJHjKY4FMmMDmZedItu0i6ZXWX7vnlMqBikgzqM00u+o8rTDWmJEACJEACJEACJEACKUCgq4RwiuApcHFxiNESuFUd8DsV56nYKmRkZKiHR9mi3nRtta8rC0Ze0uDD4n0nslsE6aPpaTL/rUxr4ph6X7cC74iMoThnORZtPOuu6QnV5S4vWzk33dKPXs73ZNAEd1n8dxYQxejOEkzC4/GUEAvopXIw4rMRnvfs2aMXoYPP582bN2vx2fh6Li0tlWnTpmkB2vh6ptVz8lw9apFB7e8ZPp8RMb+IW7ZskVOnTumB4POARQZ7FdVIqYolRVXK33ONlHcfJL1LhkrV1XS3kTwzzp6SAAmQAAmQAAmQgDcIUARv8QWe4j9fvXFBx24UF6mm5oVrLkf57YGrDhiRuSXg+h17eYNv64p0a9fJFkEa/VuyMsMaP7LhMi+7rag/GzwT6pkBQxsEtqjr5GxRi2aXeahJes70josODJ1idBsXAHd5g4ARnjEaIz5DdH7jjTf0YoNYgA5PTyHS4wsL4jOtnpN37uvq6h5RPp7vXrNmjSxdulQvOrh//35BhM9n88qW358hFUpsHth7qlSXj5e+JSOUBXSFDLthcPIOnj0nARIgARIgARIgARIggU4SoAhOEbyTl1CXHg5DI/y+V78LA7/9urRDtpPXjG3w9TiU9tTK9ek32Ypl2Zr0ORdMq/Osy44977a46MC4i0q9ZeVrn8vO5g9s91u7HQ8sxlzW2KJMd/YELjmeYrRLJoLdiB0BIz4b4dlYPSPdtGmTtnrGl9NZdZcF4XnKlClSUVEhtHqO3RwkuiXldsNauHChzJ49W5AeOnRI33xgjuHT24S87GIZ3vdiGT3gChne7yIZ+sFBZhdTEiABEiABEiABEiABEiCBLiTgVREcSLk4ZkwvrHnttYa1ndzorgP9LuzZdPMF0+tkyb8yrHPFLRrjjrXpVs2YhpaC9gaZJPsb1PKTO460+D5Gt4vKLc+NMxbTceqYr+adncGsBvdplJx877lxoRgdiysmydrwkpsOIzxjCuzi86JFi7S/5/fee0+6deumZ+jMmTOBhQb79Okjo0eP1hF5BC40qDG4+j+8bqUEZgtzefToUXn77bdl7ty5smDBAr2NzvvUv/T0TMnK6CaF3YqkrPsAGVo5Qy82OOWjF7h6fOwcCZAACZAACZAACZAACZBAYgl0lQiOUSobKcnKErU+UfCYlacJyVblGY7y4FotW5nK7UG6Uneci+F5UAT/rRr1vJaRh87BOhqCtFsDujbxffW++QsyAyrjgR0iNWPc2uOO92vF7AxL8luOryxoVG5jW7aZaybQ2CCy+KWMLf6KFiK9cxulrMZ7VtEYIcXolnlmLgkIGPEZi8/BDYPd6hl+gOFyAz6isHBBfn5+WF/PGKoSofknMAnmXLlOeUq52LgJrlXwwAELSi5fvlxWr14d8APmT0tXLjZ6S0lhPxWrtJ/nfr3GSA3itc0PG5JgqOwiCZAACZAACZAACZAACZBAChHoKiHcpSI4fDc4f6NDrFW2tXJQxadV/ImKngiNDiNoy4PGwhsX+a0z+S1Tau2ypPrfvSmudvai3LAw3bIL0fm1TTJgpndZUYzu7BXD4+NGwAjPOIHd6nnZsmVajNy5c6cWnrEfq+WWlZUFic/jxo2TgQMHYjetnjWF5PlPzeeRDRs2FENwXrdunV5scNu2bQJL94YG9chQhTRfmpQVD5Aa5e+5f/lE6dtrpN4e/IGa5Bkoe0oCJEACJEACJEACJEACJEACCSbgRhF88CD5b4WhJASKLapspYrzQuxLyqJzZ3yyaKmyGLaFsmpv+VE+tNNv7asLtk6fdG2DT/2MZ3AQqFPXwyGrBUzjEUtGv8/xtMJxTLJvUoxO9hnsQP/NAm4dODSuhxjx2Wn1DAESVs9Ic3Nz1SsdPjl16pSMHz9e+vXr18rXMzpJlxtxnaq4NK5cb1hvvfWWvPrqq7J48WLt9/nEiROC68L4fc5Iz5ahfafJmP5XyIh+l0pxfrkMeH/fuPSHjZIACZAACZAACZAACZAACZAACcSOQFsieP9qeTBduRuJRYDmYYyYYtFeLNs4us9nrd7UeqB9R3jHCrZJLdu0drNffLZhDq9ukG4FQfp7LLEmdVu7NwUv8DhmYkMrlztJPcAQnacYHQKK14vcIEYb4Rmsw1k924Xn8vLyIKvnAQMGaDEax1N4BoXkCvD9rATm29V18NiSJUvkhRdekH/9618Bv88YTVqaX1k/+yU3q7sMrpwukwZ/UK777EeTa6DsLQmQAAmQAAmQAAmQAAmQAAmQQMIJuFGMPrY/tBA9eXy9z8UurqOeu31b0yy7EF2W2Sg9K5ta/HVE3aK3Dzh5SI3P5h++e28P+mxxTCHFaAcQbsaHgBGfYfW8fft2US4YZP369dra2Vg9Y6FBLDJw8uRJmThxolRWVtLqOT7T0SWtqoUHlx48eHA8rgG43nj99ddl4cKFosqkeVHNNMnr1lOKc8ukR0EfGdh7igzve5FM+/iFXdJfnpQESIAESIAESIAESIAESIAESCD5COBt6mzlGBs6hBuM8QzBVRttpsKqMONgk4y/psGXpRay9FI4tr/F5QTGNWiSd6y+4zFPfpsQjfYb6nyS3rK2ZTxO2eVtUozu8ilIfAcS/cdYudd46uc///lNECDhA3jr1q1SUFCgXS/gy4FWz4m/BhJ1RgjQW7ZsGY8HD5h/EyFII8BhVHFeuVSWjhQsOFhdOlqqVDr8xqGJ6iLPQwIkQAIkQAIkQAIkQAIkQAIk4DECmZmZesH7+nqsf9j1obF56aOgjky8ttGX4RAigyok6UZWrur4yZbOH1T+o0urKEi3EAnOlVVZcnh7S9mqV/3WuCuUf20P25JTjG6Zb+biQODYsWPyi1/84qYf/ehHgi8BRPh5Hj58uIwePVovOti/f3/p06ePPjtdbsRhEhLcJB52KNFZ+39esGCBYOHBffv2Ca4FuOdAyM/prn0+j6yZpcXnHgWVUv2+8gT3lKcjARIgARIgARIgARIgARIgARJwA4FYC29Q8rKysrQG4Ybx+UOob28tyrDgS9lrLix6D2z07V6eFnAQ/c5O5T/aJ1ZJPwrSoa7Fnn0bfb4FaZbVu1l9PtUtTZa/nO5pQTrExyEUGpZ5iUCiLKNxHvhpevbZZ0UtTicZGRnyrW99S6ZMmSI9e/akr2cPXVQQmd99913rb3/7mzz99NMCy2fMPaK53uCCY3z/a2TGyFtk5m2XeWj0HAoJkAAJkAAJkAAJkAAJkAAJkEBnCCj5IOYhPd1dktfY4Q3fWbEu/W77QNdtS5fuW5us4TMafGnB3i3s1ZIqn51nSe/cRtlz2h/o9/odfhmuBGkIr4FCZgIExl/d4Fu6KiPwKYAgveyFDGv81fWetJB21yczMA3MeIEAPjGFhYVafF67dq22iu3Vq5eMGTOGf3ySfILr6uoeOX78+N0QneH7+R//+IesWrUq8NQ5Mz1H8rJ7SmFxqQyqnCYTB39ALrzt8iQfNbtPAiRAAiRAAiRAAiRAAiRAAiSQLATcpuIV9Gi6Z9yIhq3L16Y/Zmd4RLmvfGNupjVtRr0vMyegR9qrJF1+wPhG35l5PuuoTWFft90vIzOarO7l3l+gL9oJyy20ZNSAeln9botf8dP5Pln+krKQvtJ7LjsoRkd7hXikPqxVE/GHGeeYNWuW/PrXv9Y+ot955x25/vrrPUIxtYYBAXrnzp13Y8FJzOOSJUtk0aJFesFJkMjKzJWq0mHSu+cw5f95tAysmCTTb704tSBxtCRAAiRAAiRAAiRAAiRAAiRAAq4gkAjNI9qB5ndv+tXMGXW/2rzEb+0922I57FOLGC5ckmFNnawE6SxvCNKjLmrwrXk93YLYbsKazRkyMbdeuhV4Y4xmXLFIiyss32h/vWVf6PJUbpqsVj6kR1/qLYtyitGxuGLYRlgCaeop2KRJk7TwDQF806ZNWNHWys3NpXV0WGru2YE5279/vwXRGf6fsRAhFqA8dOhQwP1GaWGVjKy5TIb1vVAtRDhCxtw82j0DYE9IgARIgARIgARIgARIgARIgARIwEUElM2eDJrU6Cvd3xQkPKKLa5TwOP6qBs/oJSMvbPCtnOu3jme2CO+LlPuJmTfU+dJbjIBdNDtd25WiXkqQlmBB+liGXzYtFgvXTNf2LnZnpxgdO5ZsKQQBPIksLy/3VVZWWsqqVrZs2SJ79uyRQYMGhajNIrcQOHHihAX3G/D3vWLFClHb2gK6sbFRd7Ewt5eMH3itzBhxi/QpGSr9ru7llq6zHyRAAiRAAiRAAiRAAiRAAiRAAklGAAJtqgUIj9MK6+StxZkBM2FYwtafFclQltJeCbDqffsfada54uZJ9leIrJqb7inRPZZzhetiRGO9tdbmsgNW9Lmb1BqHg5o88UmhGB3LK4ZttSIAMdrv92vraIjR8DF88uTJVvVY0HUEYP1cX1//yNmzZ+9es2aN/PGPf5TZs2fL0aNHdad86pWajPRs7QN6RL+L5cJRH5eLPnFl13WYZyYBEiABEiABEiABEiABEiABEvAUAZsnB0+Nq73BQHSu7t4o2460WA7Xnk57JCO76Z72jk2W/XjQMEEtxPfGnzMsf79mLRWi+4Htfqu0yjvWvrGcjx7KZceQc43Whl0t18W7+9Ilr3vDU4U9m26O5bm6oi2K0V1B3QXnTJTPaAzV+I1++umntcC5Y8cOGT9+vAsopHYXGhoaZu3atWsO3G4sXrxYXnrpJe2Go/naSJOCbiVSWlQtlSUjZGT1LJlx9XVSWN0ttaFx9CRAAiRAAiRAAiRAAiRAAiRAAjEnEA/LaPy2dXvYsiLd2n2yxacy+ptb6B0h2vCHS45J72u8bNma9DmmbOMin5RWmS2mTgK9qtUikCfE2nm8RZBeviz9phkX10t6izG987Ck2KYYnRTTlNydhBg9c+ZMbSENNw9r166VD37wg8k9qCTtPb6M4QN66dKlWoBevXq1XozwyJEj2gd0dmaeDOo9RQb2mSr9SkdJda+xMvj6/kk6WnabBEiABEiABEiABEiABEiABEggVQk0NTW5cujwfrnrHb+1w2YNbTraO7dR/B5V6vKKm+YW1jXJ8cxm8b2pIk0a6nxJL6yauYtHWj260XdirljHzvvcTssReWeB3xp5cXL7FffoJR6PS8BbbSbyCSEWMSwtLfX17fv/2XsPMLmKK+3/dJg8yhLKOSAhFEeAAAUQIKIBY4Mx/LGXb20+P7Cf1/baBofHFmsbbLMO8BkbWEc+gxPgNWAvabHAIARIQoBIyjkgFGYkTZ6+//PW7eq+3dPdmtQ93bffAzVVt6pu3arfvZrpfvv0qTHOli1bZPXq1aIeuY7GkfZFrJtCeDJwv19//XXn8ccfl3/84x/gbzYhxB9nfFgwbMAkOW3qR2XelEvVG3qcjLt4WCEsi3MkARIgARIgARIgARIgARIgARLIQwLlGn6irEyktLT95CpUUCvXthJPm74t/b+enpu0vFbTck9dp4sajrLT52TzhIiK0JteCzm76+Oert7rDQlGZFKNv8NWDBjqSK0bEdQsvaleJoRLZbOXA8uJBGYsaQv84/dBR0a5EtrBUFAajgSkok/+e/4nriR+RDE6zqKoSrkUoyF2lulfoenTpwvE6K1bt0q+fkLpt4fg8OHDzqOPPio//elPzeaRWJ+994gFfcrUD8uFNf8iC/5pid+WzvWQAAmQAAmQAAmQAAmQAAmQgK8JeAXf2h3HpOlYvTgCb+CAlFeWyLATB7QTfTsKpFTDKoRVMUrlpdva2CJB1VNDoYCUlCXKSvr2XxD/ORh1PcOxNVNEu6fOtmn+L9EyFLZmTfs1PaTpTk1bNXXadF+kTp+TrROajgVk5eqStOrhSePaZMgYfwvRYFuftIVYSQWF6OM9c+rfKTUXtU5c/UYJPqQxtnltyJm+sHC9oxN/a9hVMfc9AStI5mqhpfpx6Lx58wSeuXv27JH9+/fL2LFjc3X5orgO7qluDuloGA7ZsGGDPPbYY/L000+LCtJm/aUllTKgargMHzRZZk+8QC7+yKel3wTGgC6Kh4OLJAESIAESIAESIAESIAES6DIBr+ibapBUnr6p+qWqyyT6ijr2htSDGOKtOkPGRFwcQ6CSgGPq1AGsVWZVBR2nUosBb2wK9LKWWgK2rZ3Jq1Wpzp5hnrpqGaXpc5r6a7peU6cMIULzxQkOoavTCdHjBrXK6GmRgLmfnVph4XVu1ef5/da4V7iz3ZHSRWn1+cJbYBZnXN3f2Vx1NCLHqt1/0vt2BWR6Fq+X7aEpRmebcJ6On2sxOqwfqc6cOVM/WQ2LbpwnGzduNOJ0nuIpqGnhD6x6mztr166VFStWmAQxGvc4GAybTQgnDK/RWNCny0ljz5K5V88tqPVxsiRAAiRAAiRAAiRAAiRAAsVBIJPo2x3BF/Qyib5W6IUg6LRpKEMtWMEXXr4oGyU3II6Wm3Q4c6g5lCGbtGjMttnjLOaxSxltB99KVourfVm8cg6H/ie91m80LdfUYWtuhnN1ftixw8Fzk2cybUybbt7nf09ou24I8qufUM/wfrZGZNI8jVtC6zCBoeMjsnk/ft3oP/IRAf2wJfqhVIdHyJ+OFKPz5174eiaIGw1PaI0dLbt375YXX3xRLr30UqeysjL219PXALKwuPr6egfxt+Ftjo0IN2/eLHYjQnhBnzzubJk9/gKZOOIUOeXa07IwAw5JAiRAAiRAAiRAAiRAAiRQaAQyCb5YS3dE30yCL8ZOFH1dkRdSLkI6QAiG8AtzNVWj+Krrr7RqFVqiregRE4PNQc/+8F6m3ch4/6rRkGk5JnCWXm95R68Jx6ymJnxmkB9W0SfyTPJM2vBUF4m16CaFq/4WcpoHxuWf0g8iMmpRJF5RJCy6s8zyJPmsVR/xUo2/XohGMboQ71qBznno0KGrx40bVwMxGiIqhFMVowt0Nb03beXmPPjgg/Lwww/Ltm3b5NixY4KvIAX0v2EDJ8nZs/+XLJrxCZlwyYjemySvTAIkQAIkQAIkQAIkQAJFTiBfRF97GyDwQvlBrF+YiembJAVZEdjtoeGHsyr6Rq+SOcMMsxoTIvPl2VqIBPBtbLxHzhdD3O1Jw/Qb4nvjEtz63SE5dlgc9Q5O+leYL7PumXl8sCPorFsflsDA+Hhtux2p+bC/1x1fbc+V6usSxwoV8G/G+L+ExDXxqAgI4NPC6Nd4crLaQYMGzRs1apQJCMRNDDuOXP+QnltXV/f022+/LRChsSGhuxFDQErD5dKnYohMUu/npXNvlLP++YKOD8yeJEACJEACJEACJEACJFDgBPJN8AVOI/qqc60Re/XdT7K3r+1TAOh9LZIVAH9OMU5gebx4/FI+eUXb2Y6cEgnU7o84+9vinve76kNS92TAmXNea8D+nrD9Cz1vbgrIG/8TchDjOOARTSPbHFnw0dZAaZmRhgp9mTmd/+4N+it5sHtJB/HkC1jRLeCp5/Se82I9QACbGCJu9EMPPSSI3/Tee+/JmDFjemBk/w2BDwp040Fn/fr1JgQHNiJcuXKlaGgO8wHCCf3Hy+gTTpapoxbI3MmXyIyPnuQ/CFwRCZAACZAACZAACZBA3hDIN9E3QfBVSkkevbHj5Pq8AcqJkAAJdJTAr7Xj8o52hld0PsWL9s77pDNbAxtXhRyI0NaOVARlzZNhp+bCVt98+NN0LCAvPBZ2whrX2GuVRxyZc3VLIOwRp73tLKcncHBXwGkeHP8gY4Dj3ac0/Xn52kIxOl/vjA/nhbjRJ598slRVVcmRI0fk5ZdflvPOO8+HK+3eknbt2uUsX75cnn/+eXnttddMLGiMiDjQU0cvkFkTL5BpKkKf8cnF3bsQzyYBEiABEiABEiABEsg7AplE3+7E8sVCM8Xz9cby9UI5ruiLzqo3UPT1UmOZBEigBwjU6xj3abqzo2PBqQthLJHnqyEsR58t4ry7Iy5IH60KyqY1YWfi3MIXpCMaHWXFIypEj00UoscObJNxixiaoyvPZVOjyBvvliR4mE+siRS0mEYxuitPAs/pMoGpU6fKgAEDjBi9Zs0aePpyE0OlqfGsJugmhJseeOABeeGFF2T//v2GUUS3Rw2Hy2TBSR+XBTOulTFDZsi4i4d2mT9PJAESIAESIAESIAES0N3HdPuxsjIVZ0tT0+iO6JtJ8MXVuiL6WqHX5qlnzVoSIAESKGgCUJDh7tmgabWmezT9XlOHDAI0vkkMz+h8t6Hj2wJllRHn9ffiLsI7jwZlvAq5NqZ7vq8h3fy2vxVygh4hOrQnIvMubguUV+fvBwTp1pIP9Qh38tJDYSfgCSowSHWi6gHtN8XMh/l2dA4UoztKyof98Ms6lzGjgVDDcgQ0drSzfft2effdd+XAgQNFu4khhGb9Q/ndV1999eaf/OQn8txzz5mvE2EjwmAwLIOqR8uimdfJ//7mt3z49HFJJEACJEACJEACxUCg10VflTWC8ff6JoYv4nIab1/cgCSPXuPHFTBiiNely1suhtvGNZIACRQ3AasaQhi2yRLBroCoQ65Ra6UpmmsWs2YtqS+nSbHKaAFbsB3U9H5yQ/R4k+ZrNS2PHh83g66B99YQovM1PEeqRfQfqvri3jZne23cQ7q+LnhuoYuMH+zUP5nV8RWf/pHWQCHHNo6vJPelY7UBefnpsBMa43kZstORaR8rfA96itG5f56K+orl+o5k4sSJJvxEbW2t7Nu3T0aPHl1UTDREibNlyxbjAY342W+++ab5GlGJekAPHTBRxg+bLWecdLVc8JmPFhUXLpYESIAESIAESKDrBDKJvt3x8sWMMnn6er18HZUmzAZM+p4JYq9GaHNFXxxjIPPD1EHIgNiBmmitlhLLpqKXfsSDMvbSBHhZEiCBoiDQHdE3k+ALeMcTfTMB3q+NuzRtS9MJ7RCT96Rpz1k1NirUbxlLY2NjXofmSAVkxzvBBCEafcornWdS9S2kurIKkWOeCbcV+EZ7nqXktLjz3aCz6f2whE6IX7Ztt8iCD7cEQvHPL+KNBVaiGF1gN6zQpwtP7PPPP18efvhh86nl2rVrZd68eYW+rOPOH5/W7t6921mxYoXZiBChOLZu3Wr+cJaX9ZUTR50uJ41ZJNPHni2nXnv6ccdjBxIgARIgARIggdwTyCT4YjbdEX0zCb4Y2yv64tia8fBV6TRohV402HJSbs/Jg5xibx7cBE6BBIqIQDrRF9693fHyBcKiEH3z8lnRDdyOHj2al1NLN6lWDbmw/Z2Qs6Ou/Z/Bfk0aorPMPqrpRsj/+pFT2+Tghvj63lkRcmadw1jRHb1zDUcC8vqzIadpQJwhzg3scuRMFaJLNcyYH4xitB/uYhfXAIG0N2zhwoUmPAi+SvP222/3xhRydk0w1pAkzp///Gd55plnZP369XLwIL6VJNK3aojUTPqQnDH9YyYW9PhLhudsXrwQCZAACZAACeQzgXwTfdsJvlGR1zJEO8zm7hF/kgAJkEBREbBvLm1YB+TWuiv6dkfwxRwyefrmjZevhcXcfwRa1Tt482shZ09japfW4G5Hpl/hD8F24HAnEHw+4kSGu2Lq4ZKQHNgZcQaNcpJePfnvPnd3RdjEErHDZUDiSP2aIzLjKg13kvrxSexcIEcUowvkRvlpmhMmTAiUlJQ4+EoNxFmErejTp4/vfjFt3rzZueuuu+Svf/2r2YzQbqQwqO8ouaDmX2TJaf8so88Z7Kdby7WQAAmQAAkUGIFMom93vHyBIZOnb4e9fJNeHVix1+YFhpvTJQESIIGeINAd0ZehHXriDnAMQwCOV7negyoRvf2nkFibb0dHDwXPXf1m+Ol08xrdt03GL2gLmDBX6ToVWP2Ms9rk9ffinr3rNpfI/IEtUlZZGPcs17gj+nHdmidKnGMpZLFJw1pl5JRI0iviXM+w569HMbrnmRbMiL3lGR0Oh+VDH/qQIF4yQlVs2rRJZs+eXTDc0k1UY1VN+OCDDzZhY8bf/e538uijj5pQJNiMsE/FQBk2bJIsnPkJuerz/zvdEKwnARIgARLwIYFMgi+W2x3RN5Pgi7G7IvpaodfmGIdGAiRAAkVGwCom2fDyBcruePpm8vLF2PT0BYUiMHzTGGEq4OTV0oK9BDUYvwrEQQTsV8N+Tf379zdl7w+rA3hziMo4ThaXbR+cb9tQh/CT+t7XbBx44YUXeofvUhnzTzXXLg2WRyc1HQtIOiF63IA20ZAWgbBnk908mnq3poLNGYdsiDj7I3FB+qVHws6Z6t1bUmp/vXbrEr45Wf85yat/LXEa+yfqzVVHIzLz7LZAaYU/eVGM9s0j3PmFeP+wdP7srp+BP2KXXHKJEaP3798vGzduLGgxWv/4/1EF9StXrlxpvKBfeeUVaWho0NiNIRk1+CSZNmah1Ey5TJb8c/f/SHedOs8kARIgAf8TyDfRF2IuvFxisXwTX2PGQjpQ9PX/s8kVkgAJpCVg32V3RfSll29arGzoKgG8R4bIC4OoawVYO15X3kPbc2yOsbxl73Fyvb1uqvzAgQMyYsSIVE2m7kc/+pHceOONadu70/DEE0/I7bffLsOHD5c333yzO0OZc/Xb0tKvX792vDMN7GDX3Dy3Vx8POZIUjXPamDY5YZw/QnJkwj/tjNbAwYfCTtswV5AOjFFh/q9hZ77GPc50XrG1bX4t3E6IPmlcmwwZ4+9nhGJ0sT3pnvV25g+d57QeKS5duvR7OtDN2PlWw1n0yJi5HkTDbpy7atWqpxGGA0L0W2+9ZTyhS8JlKkAvkjOmXSWTRs6Xmo/X5HpqvB4JkAAJZI1Avgm+WChF36zdbg5MAiTgHwLpRN/uxvIFIXr5+uc56bWVpHtvauuR23KqSdbW1kpjY6MRkCsrK6Wqqsr0h7Bskz0P49g65N5x77nnHvn6179uuuJ96siRI+1pzLNIAJ7RCGup4Tw7fBUngs+j8td2rQ86bdG4yZhlyf6IzL+8NRD0UdzfTPThkHHqZW2BF54OOqG+bs+mQQHZvDbkTJjtb6E1ExdvGz73MjGiPZXza1oCZVX2T7anwWdFitE+u6GFspyhQ4feMmnSpJvhFV1ocaMRjuP555/fdN9998natWvl8OHD0a9FBWTu5IvlolP+VRZdf16h3ArOkwRIIE8J5JvoS8E3Tx8UTosESCCfCNh3j13x8sU6Mnn6dkfwxdiZQjswrAMIFaF5Rdjk5aPNpuS2dMfob8Vdm6Nvcj3aetp+/etfyxe/+EUz7B/+8Ac555xzevoSHC+LBCBGHzt2rBOhOvT5bDmqM+q4eJ3F6accevMaVWM9juvzLioeIdoCKS1zpObU1kNr3w3HtuTbUaffIG+KCNqK3Y4eCK7yMhg/sE2KQYjGmilGe+98EZbxwiD5q0e5wICvPM2dO9eE6ECM5b1794puYpiLS3fpGnjBhI0WX3rpJbnzzjtlzZo1Aq9uxIOuLO0jp0xaKh9Z9A2Z8dGTujQ+TyIBEug9AplE3+7E8sWKMsXz7UosX4xpQzrYHHU0EiABEigyAvYdbFdE30yCLzB2R/TNJPhibIq+oFDkhvdfqQz1NqVqT1Vn++O9SrL4izZbj5xGAvlMAGI0dIH58+d3bJpOq7Q27tS+4zvWP8e9jtUGJDLCDU+BSw8rb5PSihxPIk8u1++EyMATNrY577fGXcJ3vRNyxs9uLfpwHSon3aK3Kb65ZTD134c8uZU9Og2K0T2Kk4N1hsBpp50mf/zjH2XPnj0mvEVnzs1VX8SD3rZt25UajkMefvhhgRjd3NysAlOFxoM+UU7ScByLZ35S5l49N1dT4nVIoCAJZBJ8saDuiL6ZBF+M3RXR1wq9Nsc4NBIgARIoQgL2XVGy6MvQDkX4MBTikiHIZjIr5h6vn3eMTCJvcltnxvVeg2USKDYCEKMff/xxmTFjhgmxknn9+u+6cZe0NW5Tz4/8FKPf+kfYkWhoCqxlzLRIUQuvU05tC7y/QuNnR23vZv0YYbY9Kt68qn/kGe/qt6wNyZiTiuPDQ4rR3jvPck4JLFy40Fyvrq5Odu3aJdOnT8/p9TNdDN4Dr7/+uvPUU0/J8uXLY57QlWV9ZPqkc2XOpItViF4sM6/MnzlnWg/biodAvom+EHO5gVvxPH9cKQmQQJcI2DdnyYIvBuuu6NsdL19cP5OnL718QYjWjkAmARZtNrU7MU0F+luvX5vbrnYs1Ntk25iTQFcIrF69uiun8ZweIPD3v/9dJk+eLB/5yEekuro69Yj4gKlpl8iBB9Xj5MTUfXq5dtubIaehb1x7Lj/sSEUf+6e+lyfXS5cPqfI4SH9PH9BvyMMa7O7evTSffLks3isPK22Tvc1Rr/FRAdm7KeQMm+j/mNoUo/PlKeyleeAFXG+E6cByp06dGtCNJRzEhsIOvLqpYS9RiF8WPNatW+f88pe/lBdffFF2795tNsIAo1OmXCZL5nxapow/TUafMzh+Eksk0AkCup+KDBuqnsCah/VvTitkhiTL5OnbFS9fDG89fG2edEkekgAJkEAxELDvBLsi+jK0QzE8IT5dIzYF++CDD4wIXKFfRUor8kTXj9fD77//vuzcudPk+No8NoSzhnYIvwhZhzISjQQKnYB+G1aWLVsmjz32WKEvpWDnv2LFCjN3eElfdtllJoxnOOxKViEVLwMIq68e0XLwjxphf62+oco/MXrXe0Fn66F4OAosaMZZDEcBDmHEiG5BieYlMH5OJLD35bjX+LtbQzJ4TJuE8zccunf6XS5TjO4yOp7YXQJ4UXvmmWcKvI9feeUVqa+vd7Qu/hFidy/QifPxIlo3UnS++93vmvkgFAfqQhrEp2bKh+S6JXfISR/Jvz92nVgiu/Yygb76Na2JE0Q35dAP8fX1CUXhXr4hvDwJkEA2CVhlKln07a6XL+bcHU/fTF6+GJuevqBA8w0BiMUQjeFcMW7cOLOu3/72t3LBBRccd41/+ctf5KabbjL9sNk49nuhkYAfCei+QPKjH/1I7rnnnljoyLKyMrnxxhtlyJAhflxyXq8JgjTSE088IZ/85CdlxAh3B8Axw0plSPhNkWP/lbfz378t5GzclyhETzyhVSr72pdFeTv1rE8Mn1nu2RiU4Fj3UkUaPjslZ2zkOLKyTXbVu89OQEXodc+Fndnn+vtDDIrRKR8HVuaCQEgVudNPP92Iv+qNLAcPHkzwusj2HPDi/PDhw87mzZsFL8zxohsvRkKhEhnSb5xMHnGanD/vRpl/nRtOJNvz4fj+JFCif0xGDBcZO06krNSfa+SqSIAEeoWAfWeTLPhiMt0Vfbsj+OL6mURfCr4gRCOBLBOwQjS9lrMMmsMXLAG8F3zwwQfltttuM98AsAu59NJLBQ5KEydOtBK/v+MAAEAASURBVFXMe4EA9mtCsrbqqa/KkIkb7GFe5gNHamgFFaTt5EZWtcmoqcUdKxosHH2luvqJsBMcG/c7HD4BL19plsCEuW2B7Q8EnVCUUW1pUHa8E3RG+zjWOMVoe/eLNO/tF6jz5s0zYUL2798vullgzu7CgQMHHIThePLJJ82nrrW1tRoyoVTGDp0psyddKKed+GGZ9/HTcjYfXsifBEaNVEVIJSG8loU3NI0ESKAgCdg3FV0RfRnaoSBvOSdNAoVLAK/tGT6jcO8fZ54bAvC8/drXvmZCRdorzpw5U+644w4566yzbBVzEugUAcRFnjezZeKqN0o2je7bJhNm+z/u7/EAHTkYvGHNE6F7RWMhe40ivZeG6LeP9Nm5oG31a++Ea2zL5v1hqe7X4gwY4STCsx0KPKcYXeA3sNCnjz/6Gjdajh49Kq+++mrWP4HW+NTOX//6V3nkkUfMiw+I4PhUfPSQ6XL2nH+SWROWyoyPzCx0rJx/LxM49RTRGGcaikPnoZv3PaHZ8b8P28tz5uVJoJcJdEfwxdQp+vbyDeTlSYAEepcAXs8iQYzubWeT3iXBq5NAegKp4kIjFAdiRV9//fXqPELvkfT02NIRAlX9nc2nn9IcKC3yOBQRdchar3GQ97Xqv6lRieRmndgi4VL70j+xrZiP+g6JzBv3fquz9UBcpn1jY4nM79ciZVX+4xVfZTHf9SJee2+/WNUYUAHdyNBZtWqViQ119dVXZ+VuNDY2rtLY1DV33nmnbNy4EfGpzQv1If3HysWnflau+dIXsnJdDlpcBM48QzTUjEh9rfl081pd/W5NvyouClxtnhOwr2To5ZvnN4rTIwESIAHv63RbRm4TCNl60iIBEkhPIFNc6K985SvSr1+/9CezhQQ6SaDYhej6uoC8/JfEsBxA6OjmhXNmtf6p32Dnqk4iLZruY6dHAnXPRZyD6tFm7ZXHQs6Cj7UG/LbnFMVoe4eLNO/tF7DYHXfBggUCMXr16tU9uokhvEPq6uqcN954w2xKga9j4WuL2EV85OATjSf0dV+6uUjvPJfdkwSWnB0Nw+HKfHdX9HX+xfWLlrN68jocq6AIpBN9uxvLFxC6E883UyxfjM14vqBAIwESIIEsEvC+/rbCsjfP4qVlz549Jh3vGuhHI4FCJ4D3g4gL/Z3vfEfwjVhrjAttSTAngZ4lUHcg+N3X3grfbDcqtKP3b47I9IVtgbBu1kfLTODkRa2BFX8OO62DXUE6MiIoG1eHnMnz/BX2hWJ05ueArTkgsHjxYvnxj38s+NrUjh075MQTT+zWVfGiY9++fc7KlSvloYcekmeeecaI0H00bsKMGTPl1GlXyNzRn5BhZw7u1nV4MglYERpfQ1K7W32V/iWgwTk8H1tu1fp3NY3TROt5AvbVTFe8fDGbTKEduiP4YuxMoi8FXxCikQAJkIDPCPSmyNxRlF/60pcEiUYCfifAuNB+v8NcX74RaG4QgRDtnVebvqOaNbtFBo3yZ9xj71p7qgwP6HkXtQZWvhKPZbK7PiQj6yJS2de+/e2pq/XeOBSje499XlzZ+6K5tyaEnYqHDh1qPq3eunVrt8Tow4cPO48++qjZmPCVV16RQ4cOCbyvlyxZIheff4WcPPIiCQwd31tL5XV9QiBJhL42EHQehCe0R4S2K92qhXs1nappoKZCNftXryuibybBFzy6I/pmEnwxNkVfUKCRAAmQAAl0i4D39XKyB7M97tYFeDIJkECPEkD8Z4RltMa40JYEcxLIHoF1z4cd8cTKLjkQkTMvaQ2ES7J3Tb+OXFYuMm1Mm7yzPR7Hft1zYefUD7WoVO0Poxjtj/tY0KsYO3ZsQL2hHfVmljVr1sj555/f6fUgJvQTTzxR85Of/ES2bNmC8Bwmht6sWbOM98fsaYtk98HRnR6XJ5CAl0CSCF2jIvSaNCK097TlevAVTf+qaaIm/Dm2f0RsrlXG0om+DO1gCTEnARIgARIggR4ikEpkxtBWYPa299Ale2WYAQMGyJ///OdOXfvvf/+73HXXXeac0tLSTp3LziTQ2wSsEF1WViY33XST3HLLLYwL3ds3hdf3NYEjHwT/eKQiHuc4uDsip1+lcY7jVb5efzYWd8K4tsDWdUGnoa8rGTT0C0itcu43OOKLmNsUo7Px1BTYmHihncKjM2er6Nu3r4bPmCHPP/+8iRvdmQu3tLTcsHbt2ntvu+02swEiYkJjF+QJEybIzTffLFd/7OOB+v0VzltP6SdKkzszMvuSgEtg1EiRKVPcmNAIx9Ha7ATCpe4fhA7+uzmsI92n6SlNl2uapKmPJngEJ1smT196+SbT4jEJkAAJkAAJpCDgFZGtsIxutuxtT3G676rKy8vloosu6tS6Dh48GOuP19Y0Eig0AowLXWh3jPMtZAIbVgWvlMr4CuacHzmPQnScR1dL0xe2Bla9XmId1mTL2uCVs8/Fl5UL3yhGF/499MUKLr74Yrn77rtl48aN8t577znqKZ3sMRpbJ95A1NbWOm+//bb85je/kccff1yampqkqqpKJk+eLFdffbVc8/FrpW/lsMCu18LODt21lUJ0DB8LHSSQIELr7/uWJidQUhaQYCjto3m8kbdqhx8frxPbSYAESIAESIAEUhPwishWWEZPW/a2px6BtSRAAsVA4M4775TPfOYzxbBUrpEEep1Aa3NAjlTGXaCrj0WkekDkmV6fmA8mUNXPkaqjETlW7fKtLY1zLvTlUYwu9Dvok/mPHj1asMEgYjxj9+50mxg2NDQcfOGFFwZoSA7529/+ZuJM46uD8+bNkw9/+MNyxRVXyLixEwIHtpc4r6wPxD5B8gkmLiMHBCar3/LYsRpHQzVnxytCqxBNIwESIAESIAESyA4BKyRbYRlXsWXblp0rc1QSIAE/EKiuro4to6amJlZmgQRIILsE9m1N1F0mzEKESVpPERg2ISKb3o+L0M1NASktK3ypi2J0Tz0hBTpOMBjs1RAdFhviRmt8Z+fFF1+U9evXy1lnnWWbTI43IbohofPzn/9cXn31VSNYIyTHpEmT5MYbbzQbFOpGiAF9EdKyda04W1/W0xCdl0YCHSRwyjzRWHKuCN2m3vSOaDiOkoDAG5pGAiRAAiRAAiTQNQJWSLbCMkaxZdvWtZF5FgmQAAnECUxBXD0aCZBAzgkc2KlCqUdZHDDC4RvoHrwLZRWJOB2faP2eR6YHaXGovCeAWLeI/wYxOh8MXtGnnXaaqNezbNiwIWFKO3fudH74wx/KI488YnZFjkQiMnDgQPPVq89//vMBhOeoqKiYqyc5DcdENmmIuwiF6ASGPEhP4MwzRCqj8a0gQgdCTiCkInR8j8H057KFBEiABEiABIqRgFdEtmWvwGzripGNH9eMjQz1tbYfl8Y1+YjAG2+84aPVcCkkUDgEDu3R986j3flW1Ba+x26+ka87kChGl5T7gzHF6Hx70nIwHwjQEKI7uPlaDmbkXuKUU04xBYjR+/btcyA6P/bYY/Kzn/1MduzYYYTz4cOHyyWXXCKf+9znZPz48boE/YpCaenDeuIVdR+IvLw2Z9PlhQqcgBWh1elemhv1w9wSitAFfks5fRIgARIggW4S8IrItkyRuZtQfXD6HXfc4YNVcAkkQAIkQAI9TaC5QUccHRdLB47wx+Z6Pc2pq+MhbOjW9QEJj3BHCOxyVBfr6mj5dR7F6Py6H1mdDYRbK0Rn9UJdHPzkk0+WAQMGyLvvvmsEaITj0NAcZjQN4yFnaeiOa665RhYuXBiAmK4iNLyhX1YxMfzsr9QbekwXL8zTiorA4kWizw6+IqybEjZLazgsJaXlQBD/I1pUQLhYEiABEiAB3xOwwjIWassUmX1/27u1QOzJ0r9//26NwZNJoLcI4L0ijQRIIPsEdr4XSnDTHTrW+VP2r1o8V1j3XMgJj4jrFKNP8o/YTzG6SJ5jK0JDkM5Xw9f/4Pn8zjvvGDEaMaH79u0rl19+uVx55ZWyYMGCQGU0noK+QF6m6/gm1vLKqxSiwYGWmYBXhNZwHL8KhOR/lagoTSMBEiABEiCBQiVghWXM35YpMhfq3cyveV911VWCRCMBEiABEiCBdAS2btRv3Z/gtrbtdqTPogj/cKSD1Yl6OM6tWx52DobibtCOhhQdM70tfwW9TqwPXSlGdxJYoXXPd29oL0/dfHDioEGDNuFNFIToM844Q77xjW/I3LlzAxClrZCuQvQqPa/mwAGRNa95R2CZBNoTWHK2aFga1xNaW6/V9GCopH0/1pAACZAACZBAvhCwwjLmY8sUmfPl7nAeJEACJEACJEACO98LOqET4tro+KkJTtIE1EUC9XUBWf23kBMZEReiMdSsaS0S8pGC66OldPFO+/g0iLdhjUFgRdx8X+qQIUM2X3vttbJu3TojQt94443x32w6+WhYjtX4lGj7dpH1ifsc5vvyOL8cEsC3SufOcUVo/VwDVqMP0xoU8vjLAZgejQRIgARIwMcErLBsl5gsMCe3237MSYAESIAESIAESCBfCLSql+6mfYly4ujprQn6Tb7MtVDmEVHdYuPqkLOnUT3pojGi7dynjmqTASMcX/FNfHrsSpkXPAHEySq0WFkQzc8++2z5xz/+IZMnT074h6ZCtNmkEMIivKEPHy74W8QFZIHAqJEiU6a4IjR+mavVaIB/I0IzJHQWgHNIEiABEiCBGAGvkEyROYaFBRIgARIgARIgAZ8RePsfGivaoyaO7tsmYX77uMt3+dDegLNmeVg3KkyQwcx4Mya3yMDh/hKisTDP49NlbjwxjwhA0IUIjRjRhWgTJ04MIESHNeweWlpWYt7fHTzIsByWC/NEApMniegel8brOSZCh+gJnUiJRyRAAiRAAh0hYL9kii1iWltbpfHYMWlqapKGhgYpLy+XwYMHm9AZVnDuyJjsQwIkQAIkQAIkQAJ+ILBvc8g5FI5vEhrZ5sj4/88/sYxzfY82rQk7O48GVYhOvHJ1fURmntUaKClPrPfLEcVov9xJXQcEaITlKGTzehXZTQoj+m5wxw6G5Sjk+5qtuXtFaN2UUPTrQoGyymxdjeOSAAmQAAkUMgGvyAyh2YjNmrdqatbUpOmopnpNxzSte2ml/Nv5S6XhyBHBBsqPPPKI+QaX90Nz7UYjARIgARIgARIggaIhEIzr0GbNcy9s+xNDYXb+9iP87Nqnw05deaIjadtBR2bOjcjgMf4W+Atbuez8/fblGYXuDW1vitfDyIblUIckeW0tw3JYRsxdAnNmiwwa5HpCNzdqrv/jE0NuTMgnhARIgASKmwA8mA8dOmQ8mVtaWiSoGyCXnnBCgsgM8RlCdCZ7+8UVcvOFF7QTojOdwzYSIAESIAESIAES8DuBIWPbAnMqnVWvvROuGd03Iv0GR67y+5qzsb7Xngo7RyoShehB+gr1pA+1BpIF/2xcv7fHpBjd23egG9eHCA1vaCSU/WAlJSVz9RMiblLoh5uZhTWcPl+kutoduEVd2PRZCZT69GsrWcDHIUmABEigxwl4v9HkHTxdvbdPV8reD65xvr0O8pUrV8oll1wiR9STuVw9mb/92GMye8mSTl+GQnSnkfEEEiABEiABEiCBIiLQd0hk3hl9msWvISSyfSu3rG0vRE8d3SZDx/vbG9rLlWK0l0YBlSE+IySHX0RooNe13KvZDdDVt21jWI4CehyzPtVFC0XKytzLNOl3p/WTQt/GTso6TF6ABEigVwlY8TR5Eunqk/t5j+05Nve2ecu23ebeNr+UV6xYIZdeeimFaL/cUK6DBEiABEiABEggrwlQiO7a7Wk6FpDtdYke0TOntMiAYf7bpDATIYrRmejkYRvEZ3hCY5NCn9l+Xc9g/XatPP8Pn62My+kygcWLdAPLUvf0RhWhS8s0JnRVl4fjiSRAAkVKIJ0Im64+FSbb1+bePrbO5t42lrNPgEJ09hnzCiRAAiRAAiRAAiRAAt0n8PaLIUc83+6eMqKt6IRoUKQY3f1nKWcjWBHaT97QCm+uJoblyNlTVBgXsiK0o0E9G46oV3SlBMopQhfGzeMsSSBLBLBpnBV7k/MsXZLDFgABCtEFcJM4RRIgARIgARIgARIgAamvC4h3w8JS3axw+KLiCc3hfQQoRntp5GnZx97QDyvyK4B91WpuUpinj1/OptW/v8isma4nNEToehWhy1WEruiTsynwQiRAAnlKIBKJCJIVofN0mpxWjglQiM4xcF6OBEiABEiABEiABEigywQ2rQ464glyMH1h2/e6PFiBn0gxOs9voE+9oUFdpUapbG4Uee6FPL8JnF5WCYwaKTJxYlSEdtQTuk5F6GoJVFKEzip3Dk4ChUIAAjSF6EK5W7mbJ4Xo3LHmlUiABEiABEiABEiABLpHINImctATbrf0YET6Dorc0r1RC/fsxKjZhbsOX84ccaH9tkmh3qhlmlRylJBuUhikEK0kitQgQp+zRGTaNJGSEvWErpXv6JMRqOire1nyN1ORPhVcNgkkEoAQjfAcEKNpJGAJUIi2JJiTAAmQAAmQAAmQAAkUAoH92zRWtMcmzk449LQUR5Ge0Xl4nxGWA0I0vKJ9Zqt0PTVY06urpOLwYZ+tjsvpEIHJk0TGjhVVnEUFJnMKnok1lf06dHpRd7IhCmzekzBSxaJHHa6V3NbTdT25Do7lHwI2NAeFaP/c055Yydtvvy2XXnqpHDlyREM5Vcq3H3tMZi/RTzY7aW+/uEJuvvAC3ZfgiFTqOI888oicffbZnRyF3UmABEiABEiABEiABEjg+AT2bNY+pfF+Q8YWZ6xoS4BitCWRJzkEaHhD+8zMJoW6pub3t4q8vtFnq+NyOkRgzmyRQYNcEbq1WXdPLZWaYEDW4GQI07TUBCjIpebS1VorrNu8q+N05Dx7DZt35JxC65Nqbcl1Hfnwwn7AghwJz72tKzQmnG/2CECIXrp0KYXo7CHmyCRAAiRAAiRAAiRAAlkgcHBPUELqlAerOgKHL7dcrD99p3oW6o3Em3efekPfq/fkBmxIt32HlK6nEF2oj2iX5w0RevBg93TECC8tl5pwiStCS5H/As4EFWIcwhNQkMtEqfNtlqfNOz8CzyABEugNAlaI3r9/Pz2ie+MG8JokQAIkQAIkQAIkQAJdItDWqnFqx8bFj4EjGYKQYnSXHqWePcnHmxTuV1KDW1SAXLtOhGE5eva5yffRTp8vUl3tzrLxqNmUsEaFaOMJTRE69d2DQGo9oSmWpmbEWhIggeIj4BWiQ/rtMYbmKL5ngCsmARIgARJoT6BEN94588wz2zdEa4YPH562Ld8aysvLZf58fQOZxpzwIGkNhxJaI4H+Ccc8IIF8JXBoTzAhQPSAEyhGU4zuxafVx97QyxTrNzU17d0q8ia9oRVF8diihSJlZe56G1SE1tdIgfKoKF08FDq3UgjP1guaInTn2LE3CZCAvwkkC9FffeABxoj29y3n6kiABEiABDpIoG/fvvLss892sHd+d4Nw/vjjj2ecZG3GVjaSQP4S2LNZ94OLO0ZLv2GO5yh/553NmVGMzibdDGP72Bt6uS57MZa+bZuUaViOJv1X1qgfA3F7OkDxsXlF6KZ6ExM6UEEROuMdt17QyGkkQAIkQAKJBFIJ0YuvuiqxUweOuFlhByCxCwmQAAmQAAl0goCfHGj8tJZO3EJ2zSGBgwEVo6NWejAiulVc0RvF6Bw/Aj72hsYmhc9pqkZc4OdeMB/8HNAN6vZpXbk4ElJBmtJkjp+3bF+uv34zauaMuCc0wnGUlEugrDLbVy7c8fFix4rQfOFTuPeRMycBEsguAQrR2eXL0UmABEiABEigOwT69OljTj906JB5bwNnu0K1gwcPmqnbNRXqOjjv/CSwfxuksLiNOpGOaKBBMTr+TGS1BBHaekNn9UK9Mzg2KbxeNbbQ9u0i6zdIi4rQG9Ujuj4qQIf1Kwn1KkiXaL9oAIfemSiv2jMEIELPmqmbEZa649XX6ScOVQzHkYmuFaDpBZ2JEttIgARIQIRCNJ8CEiABEiABEshvAtOmTTMTbGxslHXr1snMmfrmsEBt1apVZuZTp04t0BVw2vlMYONqVcYGx2c4fFJEK2gUo3PwDFgRGoK0D81sUoh1rVotUntY9ocC8q4elkaFaOQQocO6+mYtY9cBPncKoRBt1EiRiRNdEVo/fJCGI9KoInRFZd9CXE3250wv6Owz5hVIgAT8RYBCtL/uJ1dDAiRAAiTgTwILFy4UbDoIMfr3v/99wYrRL7zwguzcudPcpKVLl/rzZnFVvUbg0N6A0zw4/q2BgW0RCUMdo0mcCmH0OAEbkiOsO7/7UIhGWA6VI6Wy6ZjI089IpLZW3laP6Ne0Dt9DqNAcXtBGiEadJm2WVs35vQSFUEg2eZLIOUtE8AG4bkgobS3y//TuByr6SIUn/FEhLSmrc4X3c2trq0l2Y8KsXpCDkwAJkIAPCFCI9sFN5BJIgARIgASKggA2T7wquo/D/fffL9vxFekCMzgO3XbbbWbWQ4cOlYsvvrjAVsDp5juBt56DDBa3yae0+dJDNb7CjpcoRnecVad6whsaInQolPjwdWqQ/O2MsByrI21mk8LK51+SWlWZl+vDtFNF6GpNVdperqlMywjkEEbMaM2DeoxnDmK0Fmn5TmDObFeEHjcutvnrrTrnQKhEPkERuv3dgwjd0tJiRGiUGRO6PSPWkAAJkEAqAhSiU1FhHQmQAAmQAAnkL4GvfOUrUlZWZryjP/vZzwqccArJ7rnnHnnllVfMlL/61a8aT+9Cmj/nmt8Edq0POm3D45LrgJaIlEMtoxkCgaamJqLoYQIQoCFG+9AbGqRiYTle1dBKGpZjgwrR72l9uf6zggiNresqtGzEaC2XqOxsvKO1Dv8SbcInQvF/mXpAyx8CEKEHDVLVWe+Sox8dqPBco/dxjcb+piURYCiOJCA8JAESIIFOEqAQ3Ulg7E4CJEACJEACeULge9/7nnzjG98ws/nUpz4lt99+e0HoIM8884xcd911xpFo/vz58uyzz/rVkTBPnpTimkZTo8jKVxCxNm6nn9IcKEX8AJohQDG6Bx8EG5YDQrQPDd7QNyBOcH29yIqXpEFF6FWqTdZqVUyE1j4QpSFEl6p46XpFq2e01hnPaK2HnJmctIqWDwROn6+u7dXuTOD5HgxRhE53XyhCpyPDehIgARLoOAEK0R1nxZ4kQAIkQAIkkG8E4A19+eWXy1NPPWWmtmTJEvnBD34go0ePzrepmvk0NzfLHXfcIT/5yU+MED1kyBBZsWKFjBkzJi/ny0kVJoFXHitxGvrFPfnG9GuT8bMYosN7NylGe2l0o+zzTQqXK5oz2lqlZOcukQ0bZLcK0TY2NDyhkawIjTjREKJtrGgI0dYbGrlXiNZDY/F/pbaGeU4JWBE6uimh6IaENTqBNTmdRIFcDOE3GAe6QG4Wp0kCJJDXBChE5/Xt4eRIgARIgARIoEMEanXzqCuuuEKwGSCsoqJCPvrRj8qCBQvk1FNP7XVhuq6uTlatWiUvv/yy/OlPf4rFtx6kXwV+9NFHZd68eR1aJzuRQEcIbFkbcrbXxcP1BvdEZOHHWql5JcGjGJ0EpLOHPveGxiaFqy0TDcvRVlcra/Rf0R6tq1SR2YTk0DKEaCtCx7yhtb4jQjSG5z9MUOgFW7RQb5zeOYjQ2IiyvJoidKrbQC/oVFRYRwIkQAJdJ0AhuuvseCYJkAAJkAAJ5BsBhH9FyA54HcP72GvV+tVbCNS9YXAiOnToULu9fC644AK5++67ZdSoUb0xLV7TxwTe/HvYORiKR0s4dU5LoKKPCi60BAIUoxNwdO7A597QJixHq/4d2aXS8/oNcigalqPVK0IrMQjRNiRHzBta60Nan8ojGpC94rO3jDZalgn07y8yc4YrQuNSzY3SUlouGqCDntDJ6OEFbTci5GaEyXR4TAIkQAJdI0AhumvceBYJkAAJkAAJ5DuBTZs2yW233Sa///3vzabu+Tbf0047Tb7+9a/L0qVL821qnI+PCGxaE3Z2Hg3KlBFtMnwSw3OkurUUo1NR6UAdNilE8qmZTQrxgeYeFaI3bJT3VFVer2uF8JzKGxoiNBKAWG9olCE0e0Nz6CGFaEDoDUsWoXVjwt/pPK7RzQlpHgIQnZEYisMDhUUSIAES6CECFKJ7CCSHIQESIAESIIE8JtDQ0CBbtmyRzZs3m4RQGb1hpaWlMnbsWJkwYYJJCM1BI4FcEDh6KHhu9YDIM7m4ViFeg2J0J+8awnKEw+GC2CG2k0tD92WavqkipdQ3iLzzjjRo+KeXVVGu94rQ2sf1hk6KDa316byhrfezzbVrgiiNY1qWCCSL0HqZW1VrXaaPMs1DgKE4PDBYJAESIIEsEKAQnQWoHJIESIAESIAESIAESIAECowAxegO3jCfx4YGheWaFjceFdl3wGxSuE3DcqzTupIkIbpMj+0GhTYsB0RoeELbsByQOb1JDxPEZ8qgIJJlGzVS5MQT9aZEPZ9bmuTxcKl8iCJ0IngbigM5jQRIgARIIDsEekqI3v7W23KT7rrbcOSIVFZWyiOPPCJnn312dibNUUmABEiABEiABEiABEiABHqcQLjHR/TZgBChERsaCWUfGjYpfFLTYKxt30GJbNwoa1SI3hsVoRGWoxxJj8s0LxHHhOSwYTkyeUNbYDbX0xNEaRzTepjAnNkiAwfGRWgd/lb1dl9WgrtHixGA+MxQHDEcLJAACZBA1gj0pBD9b+csoRCdtTvFgUmABEiABEiABEiABEgg+wQoRmdg7PMNCrFys0mhDcvx0kuyX0XoNaocaxQH6avt2PIWyfWGdj2i8cwgwRM6nRCtTTHPaJSteUVpW8e8hwhYEdp8ZqI3UO1W/eBgGe4E40K7kBmKw+XAnyRAAiSQKwI9LUQf2rePHtG5unm8DgmQAAmQAAmQAAmQAAlkgQDF6BRQrTe0jzcoxKqXq1C5uLVFZNdecTZskHUqRG/V+oqoRzREaOsNbcNyxIRo7WNDciCHyOxNemiOkVujEG1J9HAOETq2D4PeGBWjb1X6y8xlSN1gYCiOHn7oOBwJkAAJdIBANoRo7NvB0BwdgM8uJEACJEACJEACJEACJJCnBChGJ92YIvCGRliO1WbZKlSufUPq62plpQrRjSpO94kK0TYsR6n28wrRyd7QXgHaljF0sgSafGwuzx/dI6AhM6W62h0D4Y41kkxchO7e0L45m6E4fHMruRASIIECI5AtIfpXv/oVY0QX2LPA6ZIACZAACZAACZAACZCAlwDFaA8NeEL7ODY0Vrpc0+KmYyKtWnhppWwOBeQt9aQt07gcfVWINt7Q2oSwHGXR2NAxb2it94blsOKzFZqTc+1uzNbbY+bdJLBood4cjf+MWCrwbA+XSI0K0Wu6OaxvTmcoDt/cSi6EBEigQAlkS4j+9a9/LVdeeWWBUuG0SYAESIAESIAESIAESIAEQIBitEJAWA4rRPv4sdivaxvc2qybFB6Q1k0b5aVwUGpV0KzyekNrHxsfGhsU4vmw3tDIU4XksGKzzbVbzFLVxRpZ6BwBrwjdpp8mhMJSo0I0RegoRobi6NzzxN4kQAIkkA0C2RKi4RFNITobd4xjkgAJkAAJkAAJkAAJkEBuCRS9GF0EYTncTQpVccbGdm+8KfuPHJFXoL/ro2Y3KURsaITmcMNyQIR2jBCN5yOobegLYdkrRuthLBxHKtE5VR3OoXWCQP/+IjNnxD2h9cODJ/XefVWFaIrQypFe0J14mNiVBEiABLJMIJtC9FVXXZXl2XN4EiABEiABEiABEiABEiCBXBAoWjG6SLyhzSaFDY0idXXivPeurNWHarumSiQVmWNhOfTYCNFah2cCyXpCQ4D2itAQmb1Cs7esTcZS1dk25h0gkCxC6yn3qQiNDxYoQisEekF34CFiFxIgARLIIQEK0TmEzUuRAAmQAAmQAAmQAAmQQAETKEoxugi8oWObFDZpWI66I9K4cYMs17jCrRGNDa1ezxUqJ1doDo9ojT4sCMlhU0jrY0K0tkNYhhgNQ9kKzTY3DZ4f6eo9XVhMRwAidI3ePb1X1m5VEfpRPSh6ERpe0EhtbW0mt4CYkwAJkAAJ9C4BCtG9y59XJwESIAESIAESIAESIIFCIlB0YjRiQyP52ExYDtXrpFk3t9uxXTZ/8IG8ruuFFzTCclSqnFyugjNEaK8Qbb2hY0K0tlvx2QrMybl2STDbnlDJg+MTOHm6yNChiSK0nrXs+Gf6v4dXgEaZRgIkQAIkkD8EKETnz73gTEiABEiABEiABEiABEigEAgUjRiNsBzhcNhsVlgIN6aLc9ytIvPwY/Uix45Jy7Ztslw3utMj6aMJYrQ3LIcVovEMWCHahuQwYTmiXtFWkNZuxlIJzqnqbH/mGQjMmS0ycGCSCO2oCE2iDMWR4blhEwmQAAnkA4Gmpia57LLLZP9+7JEs8uH/839kcRdiO29/6235t3OWyKF9+8xrNWxWyBjR+XCHOQcSIAESIAESIAESIAES6HkCAbyR8LMVSWxo4w2N+4jbWVsntdu2yt8jESlxIlKpoTkq1aG0XMvlWi7VMlJJNMETOqRlbFToitGO6xEd9UG1sqjNkx+XdPXJ/XjsIQARetAgt0I/J4HdqmkZCsVuiAfNUBzF/hRw/SRAAoVC4JlnnpGPfvSj0tDQIJV9+8r3n3hSpp4+v8PTpxDdYVTsSAIkQAIkQAIJBF544QV54403YnWTJk2SpUuXxo4LpfDyyy/L6tWrY9MdN26cXHTRRbFjFkiABPxHwNdidBHEhsYTiU0KF+omhUEVNZ0dO+Stw4dlg4rLEKCRKlTbK9e8TMXo0qgYDSE6rAkidMiI0K4YDVlUR3H9cqOe0biGK5eilGjp6hN78ShGACL04MGiMY8VqkvvVm1cFutQpAWE37CbEjIUR5E+BFw2CZBAwRLoqiBNIbpgbzknTgIkQAJ5RaC5uVkOHTqUcU7QBiorK6WiokL354lv0JPxJE/jNv3aMUJTWSspKZFzzz3XHvZK/qUvfUnuuuuu2LWvvPJK+e1vfxs7LpTCN7/5Tfnud78bm+7FF18sjzzySOyYBRIgAf8RCPtvSRD5AiYudFf+yBQQj7k61yc1DTZhOeqlfucO9YZWTU+lY3eTwnhYjlLtV6r1JSo0Y6NC3HdvbGgTlkPrII8GzH+uW3Q6sTldvZ5OS0UATmLV1a4IHWmT5mBIbtd+y1L1LaY6xoMuprvNtZIACfiVAN6MP/TQQ8ZDur6uTr58wfnH9ZCmEO3Xp4HrIgESIIHcE3jppZc67BGM0J0TJkyQadOmmZBQl19+uQkRdbxZ33DDDbJ8+fJYt/668/w+DS9FIwESIAES6DyBzn8k2Plr5PQMbE6IPzA+F6IRlmO1ejyrj61IfYO8r0L0k/By1kNsUogY0Sp96maFcUEaMaIhSnvF6JAKz0FVlk14Ds0hMluhOeq4qzWJZtsTa3mUksCihSLnnStSVaVCdERqFeqtKkTjXixLeUKRVMILurW1VVpaWoxHNL2hi+TGc5kkQAK+JWAFaXicWUH63ZdWplwvheiUWFhJAiRAAiSQAwJ4D7J+/Xr5y1/+Itdee61MnjzZeOXW12OrpfSGMII0EiABEiCBniHgGzHablAIMRplHxvCctygGxSKfhup7bW18oyG5sC7vT4qI0OERqrSshWiy7RsNyss0XKyR7T1igYyC87mqLOGulT1tr23c/hyu/7cvTwT/ZBcrAhdCvlfZCtE6EBQtKV4RWjrBQ0BGi8CIUjTSIAESIAE/EOgI4I0hWj/3G+uhARIgAT8QGD37t2CMBHYOBfvU2gkQAIkQALZJxDO/iWyfwUI0PCE9rkIjbAcJqp/U7N6Q9fLwZ275HmVXyE0wxu6QlO5Jhy74rMblgP3GCkuQqs3tJ5nw3G4IjN+pg/Nke8itE4+ZlhFr8wXIvTMGQpf6SMmtNq7KkJfq/kac1SkP2wsaIrPRfoAcNkkQAJFRcAK0tjU0HpI200NKUT30qPQ9oEEG9ZJpPqsXpoAL0sCJEACuSdQU1Nj4kPjyngfcvDgQdm/f7/JU30r8+mnn5brr79e7r//fr9/yzr3N4NXJAESIIEkAgUtRhdJbGjcsuWaFqsntMDTdsdOef3IEdmqdRr8wXhAQ4S2QjTCcNhkRGhVZoMOPKJ1k0ItB1QnTRSi9QS1RAEXR+nFaXNCL/5wZ5Z+ArY9cU3p+3erBSJ0jX5UgH0woiL0GhWhP62DFq0IjRd4VoRO9WKvW8B5MgmQAAmQQF4TSCVI3/ijH8kvvvpVOaTxNRFO7Ve/+pXxQsvrhfhhcipEl75/m0jb+6JbVkhb9VI/rIprIAESIIHjEvj1r38tU6ZMadevsbHRbI537733ysqV+IJx3P70pz/JqFGjEjbTs60I6+EN1eFzRzi7bOYkQAIkkBUCBRumA57QRRAbGjd9t36QuxhhOTRvWbtWHj96RHZpfT9N8IhGbGiI0tYzulwVWNczGh7RblgO1ysaHtGqmWq7Dc1hA5qkEm1RZ9u1mBcGkdkKzZkmZPt1pG+mcTK2QYQ+Z4nIKfNiSv6tCqxGT0IqSiEawjNCcCDhxRqF6IyPEBtJgARIwLcErCBtY0j/xz//M4XoXN9tjxCNS4cO3y+ho0/leha8HgmQAAnkFYHy8nK55ppr5LnnnpPrrruu3dzuu+8+OYY330lWpZsA9e3bN5b69EF0TBoJkAAJkEBXCBSkZzTCciD53LBJ4Q1YI0JXNTTIvp07TWzoClVY4/GgXeG5VLtZb2iACUNw1n5GfFZBOqju0F6PaLhBGwFa+8BL2pV4UakVpk6r8sh0Sse15D44RrLC+3EH6GiHObNFBg7UgXXkqCc04kE/qucXpQANbtYLmqE4OvoUsR8JkAAJ+J+AFaQRsqNBX8jQIzqH9zxJiLZXhiANo4e0JcKcBEigmAn87Gc/k+3btxth2nKAEP3kk0/KFVdcYauyktfV1cnmzZtl7969utl9lZx00kkyaNCgHr9Wtq/TrF/ffvvtt2XPnj1mM8iJEyf2avjUXbt2mbl88MEHUllZKdOmTZMhQ4b0OFcOSAIk0D0CBSVG46sweCNTBF+JWe6oN3R9g7o8q88zRGgNy3FAbzU8oWMe0FqGCO0K0YpGpdeQ6skhVWA1gLYRoCFIQ2o2YTk8grQr03qEaKtHm776w1i00tNmW3KVQ0w+nnn7pCq36gB4zrGMbpkVoeEuHnUZhyd00YrQDMXRrceJJ5MACZBAURCwgvTHPvYxwZt+bBBFyzKBNEK0vSoFaUuCOQmQQLETKCkpkU9+8pMJYjSYbNmypR2a3/3ud/LQQw/F6s855xy58cYbY8feAkKEPPbYY7Eq/A20f//+9re/yU9/+lNZvnx5uw0Thw4dKpdccol873vfk+56XmfzOi+++KL84he/kDfeeEPefffdhHVUV1fLjBkzZM6cOfLlL39Zhg8fHuOQrcJOFUx+/OMfy1//+lcj8CdfByI/ROmrr75aPvWpTxWDnpSMgMckkHcECkaMLhJv6Ln6hJhNCiFEY5PCDRvkBa1D2A0jRKvaamNDe72hcR+TNyiEIG10UxWp4fBspOeY57OVZrUhKjbbGvTsbTPTzTCJ5HZ77M29ZY22bUT7Lq0RIvTgwa4XtBWhdbxlGebn6yaK0L6+vVwcCZAACfQ4AQjSeLNKz6QeR9t+QCNEf0tdn+HDkN5cQdpRD+nz03diCwmQAAkUAYG5c/EWPNHef//9xAo9wt+xxx9/PFaP90TpxOi33noroS9CVi1YsEA+//nPy3/913/Fxkgu7NN9FSDy/s///I/85je/kfnz5yd3Oe7x7t27s3YdhGG87bbb5Pbbb0+In+2d1NGjR+Wll14y6Q9/+IP853/+p1x88cXeLj1Wxrdyv/Od78h//Md/CGKBp7MDBw7ICy+8YNLDDz8sCMUyZsyYdN1ZTwIkkAMCCGGQ1wYvaHxiWQRhOZbrjViNTQr192hE03b9hskKrUNMaAjRfVRdtRsWWu/oeGxoV4wOqbJsRWkIr26yorRWRAXqaIPbwa2NlvWMBMU2epBQh3F63iAe25RudG+7Lds8Ej0fuU1tWkbSQCeCwF+o77BBhD7vXNGvS7mn6KN4q5aAYplbU1w/8ce+RWPGIDEedHHde66WBEiABLpLgEJ0dwl24PyYR3RmIdqOFDr8/xhD2sJgTgIkULQETjjhhHZrR9iMnjRsjDhz5syMQrT3elu3bpUrr7wyZexqb7/kcjavA5H7vPPOk29/+9tphejk+UAERriTz33ucwne08n9unLc1NQk1157rZlPJiE6eey///3vxmt7rW7GRSMBEug9AvCozVsrEm9o8McmhcM1nKKK7tKiv+df1hBSR7U+FpZDFVcIz1Z8Rnxo3DsrPCOHSGrjI6OMBHNzCNI6CJTbWAvK9sg0uBVoj/W1Pbzt0W49lHVkZG8fW/bmKCenVOI0RGls/JjxQ5hFCxW0ko7Gg4Z7+a16zjJNRWf0gi66W84FkwAJkAAJFCKBmBDd3psv03IYsiMTHbaRAAkUA4H169e3W+b48ePb1XW34ojG3Uy2cePGmb13duzY0W7jd3hn33nnnfLVr341+bSMx9m6zg033CAIz+E16DWzZ8824u6IESPkvffek9WrV8vGjRu93UyYrgkTJshnP/vZhPruHMA7+5FHHkkYAiFdL7/8chMmBLGrDx8+LLi/8EZHbHBr8N7+whe+IM8++6ytYk4CJJBjAhlFuRzPJXa5oO4MVyTe0NikECLq8MO14qgYvVu//fPfKkQ3aZ3xhta8Wjskb1hoxWgI0ki4j0EVTVVGdhPK0WS0Za03LVoX6xTtGz+Otpm+KX5g8B40Kx5nGtLbx5a9ufWARm69oFt1ni3R1Kw5UlM01Wu/lN/f6d9fBCI0PKFLQFRNWd2KTNMyTUVlEKFbW1tNohd0Ud16LpYESIAESKDQCHRRiLbLhCAdOvqUPWROAiRAAkVF4Omnn2633lmzZrWr66kKhKz4/e9/LxCgId5u0Lic2GwP3sPJ9qMf/UjgAdwV68nrgFEyJ8S3xkaPK1askLvvvlu+9rWvyf333y8IUXLHHXeYvb6880Z4j4MHD3qrulzGxo8//OEPE86fN2+eCQ3ywAMPyC233GI8yz/96U+bubz22mvymc98JqE/hHVvDPCERh6QAAlknUBeidFQT/HpWrFsUqje0DcgLAdMNyzcrHH3X9ciPHf7aIIIXaUJITmQ4BVt40RDLkUyGxWaPCpIa9mI0JpbMxK1EaEhq8JQ44rVEFxduVVz0xzv4x6bE6J9bLl7uRWTM43i7WPLyL3ezlZ8Rg4BOiZC6zGoNukCGjU1mOQ6OmMbXQj7MbMi9CnzYiL01mCoeEVohOKACI1QHChDlKaRAAmQAAmQAAnkKYFuCtF2VRSkLQnmJEACxUTgnXfeMWKld82lpaVmsztvXU+Ux48fL3/+85+NN++HP/xh8YYHwaZ/2LTwpptuSrhUnXqpIWRHZ6ynrwPHpJtvvjlhCmPHjpVXXnlFFi5Ub64UBg9obCYIYcLaoUOHTHxne9yd/Itf/GKCSI/NErEhJEKhpDLwhZf5+eefn9D8jW98I+GYByRAArkjkDdiNLyhIUIXQWzoueoL3aI632KE5VCtr1HDFT2qH4xu1tvu9YZGoCobGxoidHshOh6mA7/lvUkP3WNbiQqY/j0wfxNsvTc3Z6CP6ektRCu0IdZm+3Qs9wrKmc6w/dDHlpFDhLYpWYQ2XtDa7grQ8Hy2IrSoEK3HyrifDjJSy2BoDCL0OUtEPCL0u1ERerx2WOb2Ko6fEJzxIgMCNIRoiNA0EiABEiABEiCBPCfQQ0K0XSUFaUuCOQmQQDEQgJj68Y9/XJqtd1h00QhHgW9p96SdeeaZghjFF110UcZhr7vuunbtW7ZsaVeXriIb1/njH/9ovJ291/zSl74kw4YN81a1K5911lly2WWXJdTfe++9gtjT3TGE1oDQbQ2bQ2Kzx47cs+9///sC3cnapk2bBII/jQRIIPcE4v8Sc39tc0UooxChi8QbGmE5VqtYGm5RzU83Kdz6zrvyP1oHT2gI0dis0HpDl2s5tTe0xwta+0AftsmIzTg2FbZW86gIHf9w0tMWP9sdCMdohtncPXJ/pqrztnvKVlD2VLUr2j7IYd5jK0B7c4jRMU9oLVsROu4JLYJwHNiwMKg66zjNB2oy5hWh1RsdtiYqQk/T8jJUFIvZUBzckLBY7jjXSQIkQAIk4BsCPSxEWy4UpC0J5iRAAn4kgHjKCM/wiU98QhYtWiTwjPba+PHj5Vvf+pa3qkfKiKdcXo6395kNHr7JG/52xjM6G9d59dVXEyYNERr8OmJf/vKXE7rhfefrr+PL4F23559/PuFkeJmfeOKJCXXpDqZOnSqjR49OaIYgTSMBEsg9AYR66DXDp1LwhI4rpL02lVxceDm8oTU2tAwcILJrp7xYd0RFUydhk0L8hbIe0DYutN2kEB8c2GT1YOQGn4quMFvvlqy86603J5i+KX/gFLN5oY6UkNveuEJ8XFvrzTO3xnsm97PHyJMTZGPURfTyEKO9qVWPW3XlyK2XNHTWkXoCwnIYO3m6iIa10k9CdaCoCB0Ky2PauMztUTw/4flsU/GsmislARIgARIgAZ8QOJ4QHdCXkk40DlwXlgxBGtZWvbQLZ/MUEiABEsgPAkuXLo15y8L7GZvWHTt2LG0YQmgT9913n1RWJkR1zPliIEbv378/dl3Ek86GdfQ6yWItvJ3LyuAzd3yrqakRbFyIGM/Wkjc3tPUdzZM3nISAX1urIksHbdSoUbJt27ZYb6wPY9BIgARyS6BXxGiopxChvV+RyO2yc3q1a/RqD+CKGpbDqaqU+rWvG2/oqqgQDQG6XIXTVF7QyUI0pGCbMCTKMJvHDqDcqmXW+aOd3K7RnzoSqq0Q7R5Ej21H7WPa7bGbpxotsUf7fvYcb46yTZCNIUCbXMtWhHYFaFeEbtF6K0I364l9VYiepHXmu1VzZqv4r37RRoR2r7ImEJRPa/saTUVjUOetAI0yjQRIgARIgARIoAAJHE+IDvWTSNkMCda/cNzFRSoXpO1HQfq4+NiBBEggzwns2bOnwzOcMWOG/OxnP5NTTjmlw+dkq2N/fJXXY9l679bR6ySLxxBzO2PwRM6mGI2QIUhdtWSxvavj8DwSIIHOEci5GF1s3tCq+y1GGCrNW3Uj3C0bNsoGvUX9VG6NbUyo0iCEaIinSLgnEKG9QjTEZnhFw1BGsmbK+BGTGN0Dr8e0e4I9K9rRscd2JM0hMsNMm5Zj48YKbjt+alVnZM3Y9DB8dBRvjrJNXgEaQnSyCN2iFzcitLY16zyM+49OZqIOcALGhgg9eHDCBNfoZyBFJ0JbARo5jQRIgARIgARIoIAJdECIbhn8FQkde65Di2wd8E/6ojOogvTzKftTkE6JhZUkQAI+IoDQGV/72tfkC1/4ggkbmg9Lw2Z7ubCOXAf7CXm9iDGvrojR3vUki9vetuOVIcx35/xU48NbnkYCJJB7AjkVo+ENXQQbFKoHqgq1ATmqvyurNCyHo2E5ArrvwAu1dUY0RWxouzEhPKK9YTmsCJ0sREMKRoIl5/FaSLnRdnTCoemsP0yT2x4bwQ6Ek6zFukRPNpn+iB664+DQXsCemDrHaV6zx94cZSSopdDAkSNBgEYOL+g2vR7EZxOKQ3OIzxChmzRvUs4n6ABTtRz2itBaj/twq9Y/qqmoPKEhPmNTwmx9kq48aSRAAiRAAiRAArki0EEh2inpjMdaSFoHfsp4QVCQztWN5HVIgARyScAbcgOhJeANPGDAAJkyZYosWLBALrzwwk6Lq9mef/JXm5OPe+r6yeMmH+M6e/fuNZvce685FLEvO2HYYNBrnQmp4T0PZcynQb9uTiMBEih8AjkRo/GLrUg2KMQTca+GhLgBhcOHpbm6Sho1Rv9zelilCUJ0uUqvCM1xvLAcqrUaydeba5Ux1LUzrbSOze6ZkHjR0xVl2/XPVIFTzXnIogNr7iSE57D1iQOZUz1V3mOU7TFyI0CjTofyitAQnyFGQ3y2AjTEaOsFbURoPQ5FHJmh+ZDT5+vuj/ohMgRojQndqqE4vqP1RSVCQ3i2ntAUofXu00iABEiABEjADwSyIkRbMEEK0hYFcxIgAV8RePPNN43o7KtF5XgxEO6TrbNicvL7UuhCXbVU3txf//rX5fTTT+/qkDJ+/Pgun8sTSYAEuk6g678JOnjNYvGGjnrhLlchdHGj+u0GA8Zrd8s778oWRQURGjshmPjQmsMbulR1U29YDoThgEe06rImJAdyJFhy7tbGf7rt+AmJN2r6GYARZ22OapQ7YxhOBWgsL61FL5Pcbk/x5ijHkp5nBWibtxOhtY8RofU8eENDhG5EWSc0ol9/mTFzhoSwf4KdoK7vVqVVVCK0FaAZikOfDBoJkAAJkAAJ+IlAVoVoC4qCtCXBnARIgARIIE6gqqpKhg0bZjySbe3OnTttsUP5jh07EvpNmjQp4bgzB3369JERI0bI7t27Y6fB2/3cc8+NHbNAAiRQGASyJkYXmTf0XBVBVyM8h35rJKK/s4Nbt8qLdXVGSO2jj0IsPrSWvWE5wN8bkgOCNORib9JDY6hLZQn1XuHZ29l00h8e0dbb7JatbBxvMTVwW4YZr2gte7yjY+E60EU7e0ewZeTehHjQOI4L0G4YjpgntLbH4kFrPytCWyG6TEXoM2ecLP0gQkdwlpoRoUWWmYMi+IFPmJEYiqMIbjaXSAIkQAIkUJwEciJEW7QUpC0J5iRAAiRAAnECkydPThCjt2/fHm/sQClZjJ44cWIHzkrfZerUqQli9FtvvZW+M1tIgATylgDEzx43eEOXlJSoQAiJ0ve2XFe4GqvUmNDHWlrkvXXr5L+OHFGxNSB9lECV5vCKtnGiy/TYCtJWjPYK0oBmE4b1lnFsLV29bTd57BagtxqObZ0dIJbbNg3HoVd1hWbU4TxzMn6oIVxHXHiOCc2oi9ZbodnmbVqP1IqkI3jF5iYdD0Jzg7Yh1WsZuwgc1XREU63WHdZUO2CgTNLQXufNq5F+JdGPUYIhExNam4tDiIb3MzaSsCn5a0/KgUYCJEACJEACJOADAiUH79NXT++nXkmon2Czws7FiE49VLzWFaQjlYviVUklbGoYaN6SVMtDEiABEiABvxJIFo+XL1/e4aXCgzl5w8HueEbjwhCjvfb8889LczP812gkQAKFRKBHxWiIzxChi2GTQg3HAdut2uDi2sPSpL//jmhoji27dskGre+jAiu2wUWcaCtEe2NEIzwHBGivCJ3sFa3NrgaMQpJBfE1rVmy2HeyxNzdljNI+OWjzplifuNiMoWMitLZbT2eT6+nwfkayInTM61nPs2E3IEI3ajICtPb1CtB1enxY54B0aNBgGXLW2fKRuXNkainIqRWjCN2in3RAhIYgTRHafQ74kwRIgARIgAT8SqB1wKf0leKQ9svLihBtL5NZkG7rd404peNtZ+YkQAIkQAI+J3DiiScmrBCxuP/7v/87oS7dwQ9/+MN2QnHyeOnOTVefLEZv2rRJvvWtb6XrznoSIIE8JdAjYjRE6CLzhr5GN8iD8Dpc9cHDlVVy7P33ZYV+8LdVURghWsXUSk0VKra6mxV23BtaTzNm8+hhLEtXH+uAgs4jwexxLI/2wXE0QYSOC9Fojyfj8WyGtF7RNndFaXiBQ56H6OxN7b2gEfc5jQit48dEaO1zaNo0Oemss+TKWbNkvqGN+QSLxxPahuGwIjQFaH0AaCRAAiSv2vzRAAAuSUlEQVRAAiRQJASc8AnSMuQriYJ0VoVoCza1IA0huq3PRbYTcxIgARIggSIg8IlPfEL69euXsNLbb7/dhItMqEw62Lt3r/ziF79IqF28eLHMnDkzoa6zBx/72MdMHGvveT/4wQ9k5cqV3qrjlp944gmZMWOGHDhw4Lh92YEESKDnCXRbjLaxoYvBGzoqiC7X2/CAOqge1lAc69QjeuuWLfLMsWMafiLqDa2iKryhy/XYeEPrsdmoUHMbliOobepIrT8Tkx7G6lD2mu3rrctYxgles8dGkI4eRAXodiJ0dBbecB1u2YrP0VyHsaE4IEh7NyC0oThcT2iE4lARWq9nPaFtGA4biqNW2w9pOqzic42K0FcNHy4TlTlmuqaYPKFtKA6I0IwJ7X2CWSYBEiABEiCB4iKQIEjnRIi2fBMFaQrRlgtzEiABEiguAoMHD5ZbbrklYdEvv/yyXHTRRfLBBx8k1NuDNWvWyAKNr1lfjwicrgWDQbnjjjvsYZdzbFh45513JpyP98xLly6Vb37zm3JMhZl0hn4QodH3sssuk/Xr15tvHafrz3oSIIHsEYhG3u38BSBC4xdKUYjQLp65Kov+Q/eMK2tsks0V5TJBEWzbu082ad5H3aQrdWO/Su1TrmXXG9qRElVSS9StOKyialjb4E+N0BwQWAPmv1hkZnMR1KeydPWp+sbrcBb8t60lHhsB2m5oaLuYmelZ5oLuuXYE5KasjY6uNYIc/2lfCNJoi+iPmJe01lsvaXhIWy9pBHSyqUn7NOoxwnU0z50r5+rflsF6rH8U8NOI0I9pvgwHfjeI0BSf/X6XuT4SIAESIAES6ByBmCDttGiM6JGdO7lbvV1BOlhxmkQqZnVrJJ5MAiRAAiRQuARuuukmuffee2Xr1q2xRSB29Omnny7wnJ6rb+QHDRpk2l999VX5+c9/Lo2NeJsft+uuu05mqddZT9jll19uxOS//OUvseGamprku9/9rtx///1ywQUXyJQpU8TGp0bsanhOP/nkk/SEjhFjgQR6l0CXxGgrQkOQLhJbrutcjLXq77jNunleP/09/KAqrwjF0UfV2AoVZ01IDhVjy7QMj2h4Q8eEaO0X1LaQ5tqsorQrSEP7xTFMiyktXX3KzsmVuEVewVmPTbQHW5/iFkJghjlQmZHbY1PWcBw6YQxpRGjN457RboxoHGcUoXVY/GXCpoXIm+fWyFIVoQeZQR3d5DAgb+jnHEUhQuNmQIRmHGh9EmgkQAIkQAIkQAIpCUCQ7h0LUojuHfC8KgmQAAnkDYGysjK5++675eqrr5Yj+vVwa9u3b5dvf/vb9jBtDmH43//939O2d6XhrrvuEsSLXrduXcLpEJ5/+ctfJtTxgARIIP8IdCpMhw3JEQ6rk28KFTP/lte9GUUgqYosV61wsYblcFrbpK4tIkd275Fndfl9NfXRVK2pSpMRo1VoLdNyqUrLJZog9oe1zoTl0LLrDY1RXcMxzP3p1nl/pqv39jluWecDedmmWDxprfcaxGX0wWyMvzaOTYIA7SazIaH2aNNj4+mseYv2gaczxGUrMDdouV7rj2k6qumIJsSDrtV0WNuQjqgIfdaSc+TjGoJqkB436FhrNJ2m5RpNyzT51iBCYzNCJHpD+/Y2c2EkQAIkQAIkQAIkQAIkQAIkUPAEzj33XEF4jnnz5nVqLddff73xSh42bFinzjteZ4yH+Xz/+9+XPn36HK97yvbJkydLeTm+1E4jARLINYEOi9HwhoYIjbxI7BqNUwzNcLHGhW6A/l57WF46dEg3KRTpp4JtX82rNY9tVKjHVogOq6gKETqkuRWiYzGitV7/NwkotUtKS1Odsm+6ypgAna6D1sc2LtQZuWVXhHbDbaTYmFAnbOJA6wRdEVrjQWu5UZONB21EaB0bH5vWaarVdFjbDw0eImWnnyEXqQh9dVSE3qrjrdH2BZogQqPsW/PGg6Y3tG9vMxdGAiRAAiRAAiRAAiRAAiSQIwLJYiQc56qrq3v06smb+MFbOJ0l903XL1V93759E6rz4Tp2QhMnThSE5/jiF7/YblND28fmo0ePlgcffFDuueceqaqqstUp82RemdbsHQD61L/+67/Km2++Kddee62MGDHC25yyjHl94QtfMEI2vKqTn52UJ7GSBEigxwkEEFvneIa40MUSGxqhIvRv13KI0JprrCM5UFIiwX3vm7oKrS/TVO5EpBRlDdVRquUSzUuieVjzkLaFtA55EAm+xhhayzqqyYEdZWNa77VYvbeyE+XE0aInJl3DhOtAk9abcjRH2U0Rk0f02KY2LZuk62nVi7RpDmHaxoNG2QjVmtu40CYkx6DBMmjqVFlcWqqcACIgW7XPbzQ9qsnXAjRgMhSH3mUaCZAACZAACZBA1gmEDz8gwaP/fdzrNI/8lb4gQ1Q5GgmQAAmQAAl0nsC2bdvkjTfekNdff1327Nkj8DRGXOiZM2eaGNKdH7H7Zxw9elQ2bNhgNidEGA8I2+PGjYslxLamkQAJ9D6BjGI0PlGECF0s3tCtKqOGdKtBiKUqQjfr761G9YredbhWtuitKtd6CNFlEKKNCJ0oQIe1zgjRXhFa+yJWtBGh9VwTAEOPVQE24nT8CdBKU+8RqOONHS5Fh0jT371GrI/Ox5RNHm1DWecM8dnVUF3xOaJ1EKFbNRkBWrtr4BJp0Vx30zHCsxWh8emG8ZhWRb1RRegTTrQitEaTDgSLR4S2AjRyGgmQAAmQAAmQAAnkggDF6FxQ5jVIgARIgARIgARIgAS6SiDtBoZF6A19b7hEbgBIjQ3dUFkpFYcOy0p1HG9WTb6virD4Hg4SYkGXqNCqsrWKzwjH4eYhzRGSA5sUwhMa8UyC2h6NwGzCcQQQhFnb3FjRRgrWY5itd486+9M7UrpzXZ9st6f5qesywrteGpsVQpqGaop+yJHadE3IW7UO3s/GA1pPbtH6Zj2nGbm2ueE6nHjcaP3AceT0GXKWRnUJtkGmFrlWhegpmvvaE5pe0OZe8wcJkAAJkAAJkAAJkAAJkAAJkAAJkAAJkAAJtCPQTowuRm9oFVcdDTekG8mJ09IiO5XSsYMHZZvmFZoQtAkidKmKtvguI5iZpGIshOeQirGIB21yHSuoAi1EZ4jRqvdqqys+a7Wa/tA6ZLEc1TBb7x4d96cZ7ri93EvZbogJrcqzuTzqMAZmZ4RobbIitBGita1N22IitPay3s8QoJv0uCmaIxRHo5Ybp06T+UNOkBNVhA60qI90q0aeLgVFnxtEaLsRoVH4fb5eLo8ESIAESIAESIAESIAESIAESIAESIAESIAEOksAomrM7CaFsQr/F65Rb+gHVEcU9YCu19jQLRBU6+pkty4dInS5ircIzQFP6BIVmK0QHdI2iM4mh/CsZeMFHcujIrQODS9oyL3GdBzrHZ2sPrf3lnZPSf4ZHSm5ut2xt58tI9fpGhUa5UjUOzqidfCObkOdplY9RhlxoRGGwxWh4QmtqLS+UZk06bkN2tao5zVOUxFaNyeECB2MtMmB1mYZXAIJ3+fGUBw+v8FcHgmQAAmQAAmQAAmQAAmQAAmQAAmQAAmQQI8RMGJ0sXlDa/xjxC5eroKq2aSwqdlsUhg6ckTebW7REBSJYTlKlXZY5WSE5YD47IbhcENwuN7PcSEaQrOebsRnb9nesJgQrX2MPm3z6KGe6NbbEzqZW9HZnmaPkcfLCMPhekcbT2i9ZkTnHVEh3QjQ2hcitAnJoW3xMBwqRGt9o9Y1aB8jRM+aKxfoRsVDIUJr3WsqRM8NKiUkvxq9oP16Z7kuEiABEiABEiABEiABEiABEiABEiABEiCBbBIIF5s3dIvKqaES3U9QZVjdV65Nw3JsVQW47cBBE54DASX6aIJPL5IJy6Hia1hFWFeIVi9oLWuVCc1hQnDEBOi4EA3344CKu/q/Gnrbn6YieoQy2mydFtsdo+745h0Bve0x8lQJntC6z6LxgkYoDojTsbjQ2gZPaBuSA57Qxhtac9cTWgXpWbPlwr595QR4lWv/tcpzjgr8vhah6QWtTwCNBEiABEiABEiABEiABEiABEiABEiABEiABLpIIKzWxVML6zQjmgbkmpKywAMqQot6QNeWwNdZ5WT1iN6rq4EIXa7JCNEqsJaozuqG5dDY0NozqC7PQR1HmzwpKjprXVyA1h5GiEZuGtwMRWNaiflYQx/Poa3uSO49LbmM4+RkPKG1XiM5m80J27SD8YbWOZiQHJq3qJBuw3FYIdqI0Hpe44yZckGfqAitHF9RJqdhdXAH96tBhLbxoP26Rq6LBEiABEiABEiABEiABEiABEiABEiABEiABLJNIOdKNEIcICxILq1NA06oG7DZpBCXVm/oPSpEV6oI/Z6K0hBjrRCNkBxIJSqwQqoGH3hEm3AcNof2qmUYcjf0BvRYVXZVyPUK0SZWNOoSDBKxGqpNMVYw1UbY9YrVbm3Cz+gIps6WvTnKNkGARhk51mpz4wmtc3ZDckCA1tjQOtcmzRGOw3hD69QQkqPlpJNVhO4jgzCvI7Xy3pZ35IyZ8+WgtvnS8JxaT2huSOjLW8xFkQAJkAAJkAAJkAAJkAAJkAAJkAAJkAAJ5JhAzsRoK+jlWohWnohhvBpCcUOD1GooCXhBBzUsx3uaV2qq1gSPaCtEu97Qrlc0RGiTVMTW2B5GJ46Jz9oGc6V1HV+F3LggDa3ZrYM4bSyambLRn5NEaLdXyp/eU20HW+fNUbYp7gUdF6AhRhtPaM0RhgOCtBGhtdyk80cZGxI2QYTu31/6jRsn56vzfClE6H175dHdO+R7JRFZpUJ0s57jO8Nzar2g7TPru0VyQSRAAiRAAiRAAiRAAiRAAiRAAiRAAiRAAiTQCwRyIkZD1Mu1CA3xVFXi5cp0McJytLbK/spKGaKC9AdHjsoerbfe0AjLkSxEG29oPR9hOaxXNKRjlZv1pxuqwxRRB/UXBygYQRrHbtnWocb2N2Vzjv5wh4vn2miaoHBjDUnmrUHZHtsyBGiUvUK0V4DGpoRmY0LNISZDkG7SSTTrWdiYEIJ0Q/++MmDsWFeEhlf5sSPy7fc2yM81WPYHc06RY3qO78x6QSOnkQAJkAAJkAAJkAAJkAAJkAAJkEBvEaitrZV+/fr11uV5XRIgARLIKoGsitHWszTXQnRrs8bkUB/lkErKqi22tkVkt3r39nt/vzyrNL3e0FaINhsVapvZpDCaQyf2CtFWb9ZqFY/hKW1KUZFZD9IJ0RgIErHtHz3NFaLRqNONqdK2UXO3KeE0OwRyW/YK0KjDsRWgrRd0q47lFaEhRCPZmNDwhm7UDQkHTxgvl0CEj7SZca4NheXBKpXt587V3j4zPJ9WhLbPqs+WyOWQAAmQAAmQAAmQAAmQAAmQAAkUEIGf//zncuutt8oTTzwh06dPL6CZc6okQAIk0DECWROje8UbWmVYDcNxTbg08AC8ihsaZX9ZqZSoIN18oFZeVyTWG/q4YTm0L7RgOChDdEYZP03ojSSvZdvmdtLOKuzGPKKtYm3qMAbkYtcc1OE4miFPdIZ2G+JnuGfj2JsgPnuTFaK9AjQ8oK0AbUXoRq0zacwYmTtggEyBCN2mMbRDJVKjoU3WaLsvDc8mQnHQC9qXt5eLIgESIAESIAESIAESIAESIIGCJAAh+v9v71xg/KrqPP6bJ32XFkpZhNKi3W0tr12JCckqDdhH1gevUkN5aLUuEkkapGY3q5sYUSOBqizRxDVsE1uKEBOVaLbgAi1EMSZabSnrBqJLN1bplHl2Oo//zHS/33Pv7z+n/86085/5v+5/vkfPnHPPPffcez93ovDpr79z3333QQyctHXr1tmzzz4rIZ3JL6mHFgEROBOBssjoaohoRkNDQu/F/2ZfR1nc22sH58yxKzo77ZfpJoWeG9qjoZmag+/P6psUeo5oauCkJkKYP+MSjgsHgzXGYJquI5HTOOZ4JKXDtLAYejztUjpcwCjp0eKnfIwtK+Wzt+y7gA6R0FjTo6ApoZNUHImMpnwOGxOi7YeEfo9L6CHMArcGiOi6LR4FLQldt59YLyYCIiACIiACIiACIiACIiACmSQQi2i+QFtbm4R0Jr+kHloEROBsBChfS1YooVkqmZaDt+w/ftKaWhpOIgL6OqTkGEBE9H/PnGlLmJYDIpqFIno2KlN0MCqaQpratTA9R5yWA043FdLopIWvxvHRH9EsSnA/eUrfL0BcdTSd/TT7dBgPcjmMjYpmnh/BWCycKZpj2eyRzmHTQcztw3nmdWY9juu7UbtQO9PaDgl9+ZVX2aaFC20FnnM/8kI3NLdARJfljybwFFUsHgWdy+WQN3xI0dBV/Ba6tQiIgAiIgAiIgAiIgAiIgAiIwOkEYhF9ITZw+seHvmZNyDXqQvrQoUOnX6QRERABEcgogZLpx2pEQ3OvucZG2ztjTgM3KTw5MGBvtrYas/w3v91uv0Ubp+U4m4CORTQ/J7xuUtDxwGYfSs4m7j0/MRxyMmfhgLY5jZIOEjodS68KS4U4aExjdHQSE01hzWvDf9kkFXNG0jFGP58ip3GOyp2CmmKa/UE8hEdAs6Wg7l/+Lls3e7YtRp/l1ydH7BqkNcH/ySUD9fRTUdD19DX1LiIgAiIgAiIgAiIgAiIgAiJQnwQKRfQjL75oFy5bhnqZfWXTpryQVsqO+vz+eisRmI4EpqwhqxENzQ/laTkYDQ0hbbkh+yOioS/r7LJfDA6GtBWelmOs/NDjp+VIXXL6ywDPi8Kf1MJpiQ8ZAe2nwuT0YDwRnc7hLL/MRXQQ1hhkNDTFtM8ZSY+Hce0pEhprFEroAczNb0qI8yEnNCT0+iChkzvuQzT56hC5Tf1eZ4USmvmg/feyzl5PryMCIiACIiACIiACIiACIiACIlAnBMYT0Xy99992W3hLCek6+dh6DREQgTyBKcnoakRDMy0HROompOV4gpHRiIb+Pxwfwxudg7Qce9AyHQfrTI6l1dNx8H1jEU037EqW/eCK0bLE/XCQuNz0TPIckJ5h7uiP9CpEN4cUHOEQ/VROh9khCjqR0TwO4hnz8lIaY0zNwaUpn5PakOaFPhkioD1Nx6mbEo5GQ1NCD77rnbYeebMvCFrbbB9eYjXGya+uCn8PPRJaErquPq1eRgREQAREQAREQAREQAREQATqksCZRLS/sIS0k1ArAiJQTwQmJaNd+FUyNzShjyBBRWOT7YV7vA51GCmA32g9xxbmBq2lu8f+F1MYDc280BTRY0VEUzxTRlPHss/W1ay3GMqPsZ8Uni0Uz9Gp/BXJnCCfeZpSOi+iEfGM00zDwVleKZs5B4lGQmYPpuNgNPQI5rEfb06Yw/gQ5hVK6BABjXX658+zeYsW2RpI6PPSe9yBa3ajX3fFBTRbFREQAREQAREQAREQAREQAREQARHIAoGJiGh/DwlpJ6FWBESgXggUJaMpoVkbmRejwiVNy9EL7zgLj9CLjQr/B/n8L4aE/mWalmMeHsklNCOiW9PKdxwrInosER0LaVw2fmF0Mc1ycNThRzqXKTZQeJo9RkF7lDQOKZiTNBzo8zSmhshnimf2MX84L6GT/jAmeSR0nA/6lHQckNDzL7nEPggmfHeuewdq3Ulo/x1UKg58XRUREAEREAEREAEREAEREAEREIFMEShGRPuLSUg7CbUiIAL1QGDCMtqjTystooPwRVqO5taGJwD8zcGcHWlssE6MzzrWaU9jbCHquaixgI7TcpRMRLuAxr1GSyqig3weHaUMTkQ0xfBoRHTI/4yTLqB9M8IgoXEJRfRwKqSHMI/nc1g7kdBIvYEx35gwRENDQi9cutRuxrM14k5vYf5nUetOQnsUtMtovKOKCIiACIiACIiACIiACIiACIiACGSGwGREtL+chLSTUCsCIpB1AhMKcaYIpISutIgeho7t66GPtcf5A/mhn5hxjl2LbkNXt72M1qOe45ZpOLzy/eJKdewV3dCPW/YnXLgQCtxxEM5cLYl6TlsIYp4bQcs6zIo5QxhjzeGYdRB1AMf9rDjfh/YE1j2B9jiOe9DvRu1C7cRYB+u8eTb3qivtjmXL7IO4fj/OMR3HhWjrSkTzdy+Xy9kQcrKwTxmtIgIiIAIiIAIiIAIiIAIiIAIiIAJZInD48GG7//778/9Oe++jj9qF+Bf6YgqF9Od377Ym/JXotrY2W7dunR06dKiYJTRXBERABKpO4Iwy2qNQKy2hTyJueODEiJ2AiJ41r+mLoPQ6XOTjra22EZsU3tnZFTYqhJOFfk0q34P9WDx73+fgdH6+99kWVbhYWjzdRrJqIqV5gyCn0XITwpD7GYPD6FNGD6U1SGiMD6Q1kdANQUD3Yv3jmBckNK7rQr8T8zow3r5kia288kq787Jlth7jlNDvQb0GtW4kNH/vmIbDJbQENL6uigiIgAiIgAiIgAiIgAiIgAiIQGYJLMG/zO/cudNaWvgXuc2+vmWL/fF3B4p+HwnpopHpAhEQgRojMKaMpvxjFCo3KKz0JoVDOURDHx+2wf4Rm7ug+Td4jDl4HEY6n2w7ZvexTWtIdZH20eQL/C3UrSvi01tO5Hkvcd/Hxm8Z9Zw8Q5iDi8NxaLkJ4ak1REPjXJDQOMeUG0kk9Gg0NCOge1mxYIiEBnZGQneipYBOJPQldgUk9N0LFtgVlNBggkuChP4N2roo/J1jBDQltHJC18Un1UuIgAiIgAiIQE0Q+POf/2w/+clPauJZ9BAiIAIiIALTl8BNN91ku3btCkK669gx2/aBGySkp++vg95cBKYtgdNktKdCqHg0NJTuQN+I9Z9IoqHnLmw+CSe57djb9ijSc/xre4f9O74SBTTzdnBDP7asPkYpzP4pshjHpSr5dWmBUZLjRE6HXNAcw7kQEY2W0dBJSo4kIpoS2kU0I6FP4Ji1FzVEQqPtwjVJOo5URC9bZtdCQn8CEnoVzuclNPp1U/g751HQ7KuIgAiIgAiIgAiIQKkIUESvWbPGPvrRj9rTT3O7ERUREAEREAERqB4BCenqsdedRUAEaoNAXkbH0dCVFtHDwyetvxdpGQYRBj2/+YuMhEY6jvkdnfY7YBrp7rGDaF1CczM/yui49XM0mYVCmtJ4KiUvodNFPD0Hx8O94IXZD6k4IJlDXmi0npJjEP2QjgPz+iGREwHNaOhRCd2NPiOhQzQ02vbLLrPrr7jCtsyda8uw9j6PhMa5uihKxVEXn1EvIQIiIAIiIAI1TcBF9Ouvvx7+9tXmzZslpGv6i+nhREAERGB6EJCQnh7fWW8pAiIwNoFGRqJ6SgRK6Eqn5cgNIBr6+JBxs8ITg81UrY1Ix/FVtC6V2bpspoRmHYwqpTSP/RznsvI6X6NQKONUvhSe82NvfaIfs2X0sx9TPif3hIDGOd+ccFRCNwQJ3QeRHEQ05o9GQo8K6JCSY+lSW7Nqld0za5ZdhLX2oZLJ6nqS0EzFweq/d3g/FREQAREQAREQAREoKYFYRPvC/OcPCWmnoVYEREAERKCaBCSkq0lf9xYBEagmgUYKQZZKR0OPjDA39JAN9A9b72CLncgFEc2I6AfxOC56XSjzISl6XTy7jB7AGCuPPVKa8xI5PLoOhkLhuizeJkfJT7/nWGN+zp+HaTn8HuHZIIsTEY280Dg3CIM8gNqP2oea5IUeldCMhA4bE6LtmDPHWrCXwT+sXGn3RhKaUeur44fJcp9/6OH5oNnXpoRZ/pp6dhEQAREQARGobQJHjhwJqTkYEc3y6Ucetv949ZAtWLxYEdK1/en0dCIgAiIwrQhISE+rz62XFQERSAk0MhK6qYn7A1auDOUQDd07hE0SGQ0ddpKFrw0RwC6JY/nr0rdQRruIjluPkOY1FMdsuZZHSKObF9F+L44VFr+/t6MSOlkrrO0CGhdThHNzQj4LBTRzQvehxjmhXUDHEroVEvq2iy6y22bOtPNw7R2oZLEaNfOlMBWH8kFn/pPqBURABERABESg5glQRK9du9ZiEb3hgW22ZNW7bfvzL0hI1/wX1AOKgAiIwPQiICE9vb633lYERAAB0ZUU0ch7bIOIhGbtHUA09KiIjr+FC2BvXSpTLFP6UjgH6Yu2P60upD1imvMor10i+1pxi9P5COx4vLDva8TPEaKgcT0FtN+TAprPk0hoC6k4jmOsG5UCOkho9Dtmz7IZS5faxxCcs6G11RgBTQndirobNfOFEtqjoJWKI/OfUy8gAiIgAiIgApkhUBgRfe/2R4wi2ouEtJNQKwIiIAIiUEsEJKRr6WvoWURABMpNIERGl/smXJ9R0AN9Q5YbGgkiOr0no4DjQhHM4kLYRTBFdBwZ7TK6D+NeKYI5TjnsMprXsXIdXxPdUPxe8THHfK7fm63fny3XZk2kuAvo5DnCpoQ41wPp3IO2Cy+Yl9AzZ9nMSy62jy1aZDdDTv8W5ymh56JmXkJTQDPyOZfLhaooaHxVFREQAREQAREQgYoRcBH9xhtvhHtSRN/62QdOu7+E9GlINCACIiACIlADBCSka+Aj6BFEQAQqQoBRuWUvudyw9fflkrQc/SEtB+8ZRDSkbGFxSezyOJbBLqQ9Etojo+PWZXQspF0s+5qFLc9zLG5dZHsUNFuPgj5FhuMdenHuOCoFdA8FNNpOjHfgLdsXnGt/g1Qcd5+30G7E2H6co4S+BrUuJDSjnxkJzapc0PiqKiIgAiIgAiIgAhUlMFER7Q8lIe0k1IqACIiACNQSAQnpWvoaehYREIFyESirjKaYHByApISMPtHfaieQmiNyz5S/cYmPXRa7RGbrUckuhF1Ae2Q027NFR8fruXyOBbTfh+LZo6EptVmTSOjkHrzXCdS8hMZ7deOYEpoCugPH7fPn2bsvXGx3Ix/01TjeDxx8/bqQ0Ix8dgGtVBz4qioiIAIiIAIiIAJVIVAooj/99e1jRkQXPpyEdCERHYuACIiACNQCAQnpWvgKegYREIFyEiibjB4eHgkimi1LPgKaOvbMxUW0ty6QYzlcKIZdRLugZuSyS2QXy7ze14pFtAtonvd78BoX0LwX13XpTQmdj4JGnwK6iwIaLWv7vHl2OfJBfxwS+gpGQruEzjPApCwW/uECxTNTcVBEU0grEjqLX1LPLAIiIAIiIAL1QeBPf/qTrVmzxjw1B0X0hvs/O+GXk5CeMCpNFAEREAERqCABCekKwtatREAEKk6g5DIavhKR0MgNPZikbDiLgKUUHhXVSaoMh+Ay2sVxLItjGR2LYpfShbmjC4V0LKbjdV1g+/pxOo5CCc1I6E7UIKDRti9cYH+/+ALbPHOGrcLxvnqR0B4FTQmtKGh8WRUREAEREAEREIGaINDT02OsXhZe+FfenXArIT1hVJooAiIgAiJQQQIS0hWErVuJgAhUlEBJZTSlZW4QUbOIhg4SuiAK2sW0t2d40yCpcd5FtEcve8SyRy3HsthFdBwdTanMubzOhXTc+vh4EtpTcTAdR8gHjTaW0EFEIyf0dRcssk+0tNjFOL8PlW++egLviWm1W8L3jKKga/dJ9WQiIAIiIAIiIALTkcCKFSvsueees8X4K2ksD919t73w5JNFo5CQLhqZLhABERABEagAAQnpCkDWLURABCpOoGQyOknfgGho/KdQwvK4cKzwTcc4XxgZ7UKakcyFMnqs6GiOxRHSLpwpoF1Q+zqFkdCxhGZKDgroWEK3n9NqjZDQ10NCb4GEvgDn8xIa/cyWwlQcSsOR2U+pBxcBERABERCBaUEgFtLDSCMmIT0tPrteUgREQASmDQEJ6WnzqfWiIjBtCExZRlNWMn8wZXReKEMj0yQzPHi8kp97amoOTuelcXEp7fmeXSZTJBdGRlMie25nl9Gc41Ka0tmrj8druIT2nNAU0MwJnU/HkUroNfPn282Q0OfjHCV0K+pq1MwW/47+LScroRlN/Yc//MH279+fWRZ6cBEQAREQAREQgWwRkJDO1vfS04qACIiACBRHQEK6OF6aLQIiUNsEGicrHflaFNC+kZ2/JiVzqBgIVjk10vnxMxjqSFBzOZfQcd+jo11Ie0RzHBkdC2lP3RGLZ+/7NS6gC1NxUELn80FDQjedf57dBgl9CyT0eTh3B2rmJXScD5r9qfw+vPXWW/b444/bvffea1u3brXDhw/z26mIgAiIgAiIgAiIQNkJSEiXHbFuIAIiIAIiUEUCJRXSSGnV1NxsbW1ttm7dOjt06FAV30y3FgERmG4EGiezIZ1H0Y53LS2yC2m654Ecne3pJfLSwVtHM+Jjl9IeGe0bDjIyujA6mmJ5vOoR0/F5CmjWwlQccST0OUjFcScldGOjHcVcl9C70c9k4ffjt+OGhIV/mDCZF+J6e/bssS1bttgXvvAF27t3rx04cMB2794d7jOZNXWNCIiACIiACIiACBRLQEK6WGKaLwIiIAIikCUCJRPSGzbY5yWks/Tp9awiUFcEGhkNO55UHutNPZKW7XiFItptMjxlIqYxlhfUbqG9jRYqGHIR7W0spMeLjo4jnV02F7aehoObEjIC+pRUHDh+e95c+2tI6LshoW/C8W9RKaGXomZeQk81FQcY5MvRo0ftU5/6lN166632s5/9zDo76fGRK6Wvz370ox/ZwYMH83PVEQEREAEREAEREIFyE5CQLjdhrS8CIiACIlBNAhLS1aSve4uACJSCQMgZ7UKaUpp9RroWVpfQFJk8d6bip4N8hl32NlxTYJt5Li3JooXHycmzyejClBuUzYWV4tk3IoxzQdOetqeVEnolJPTHZ8ywv8OYS+hr0M+shPZvx0joYv7gAe88ZuEab775pj322GP23ve+13bu3BkirAt/LxgdTSFNMa0iAiIgAiIgAiIgApUiICFdKdK6jwiIgAiIQDUISEhXg7ruKQIiUCoCDQMDTKE8Whpgh1nj4mI6HptI36X00HArJKhBdCNiGlo5rlzH56Gbv3E65sdsKc5Zm1CbUVtRz0GdiTobdV5az0XrlWNzUGehci6v41qU20z3wehq5p3uh4S+FgL6b9Fn+TVmXDP6NMlgln7ym1FC+x8ulOrZ//KXv4SUHEzB8corr9jgIPGNXy699FLbtWtXkNbjz9IZERABERABERABESg9gd///ve2du1a474WzI35T9/7nl1/++1F3+jwodfsgRuutw6s04x1duzYYRs3bix6nUpc0Nz5hDUe/8+z3mrwHTvwT8UtZ52nCSIgAiIgArVLgMFfd955Z0jBOf/88+2R/3rell11ZdEP/NIPfmBfwf8/DiP4cNGiRfbss8/aqlWril5HF4iACIjARAicJqMnctFE57hkHjmZyOhCIc11fI63GAoCuuCYY7GQplTmPz1TSM9ApWymkJ6LOj+tLqc5TmHNuS6jme4jpPmAhH4fJPR7cMyyDxJ6ddYltEe4J69Ump/9/f32/PPP23e/+137+c9/bt3dDC6fWLnllltC/ujCP+SY2NWaJQIiIAIiIAIiIAKTJzDdhLRk9OR/V3SlCIiACGSRgIR0Fr+anlkEpjeBsspoxh8zBLmhoRVpHBCKnEZHj3A8quETpHPTzxEL6dDnMqiF0dEU0ox4diHNKGgKaa88pozmec5lVDXLyIJzbVNLiy1LDrMvoRkBXYoUHCmPUxqm5HjwwQftpz/9qXV0dODb8atOvLQA9Pe//3370Ic+NPGLNFMEREAEREAEREAESkRgOglpyegS/dJoGREQARHIEAEJ6Qx9LD2qCIiAlVdGA3BrK6KiEYeMdMVBSDNVxwTSdfDTNLjMDv1ERlNIs1Iqs1Iwu5Bm9LNHSFNAe3qOfIoOREAvmTnTPtLSbO/EeTyR/QJ1NWomS7lScRAGc4NzM0JKZIpo35hwsqCWL19uL7/8si1YsGCyS+g6ERABERABERABEZg0gekipCWjJ/0rogtFQAREINMEJKQz/fn08CIwrQgw0rjspQl3aYI6Zm1EnympPS11sMv8geJjyREH8j2G4saVaTY81UZIt4FjJr/mTnm9qNy80Dcp7ICAnnfeQvsYUnJshYhegnP7UJm2YzVq5kqpNySMAVBwHz161J566im7+eabbdu2bVMW0Vyf0dXf+c53Qi6r+H7qi4AIiIAIiIAIiEAlCGhTw0pQ1j1EQAREQASqRUCbGlaLvO4rAiJQLIGKyGg+FCRwXka7kG4MJjpxzi6ivcUlIRdEdMxlxhPSjHLmTnqxkO6ZPdsWL1xgH5k7xx6ECF+F83ehZlJCexR0DiHmjFqmkC514WaW/NPUrVu32uc+9zn71a9+VXRKjvGeic/82muv2fHj/HMCFREQAREQAREQARGoPAEJ6coz1x1FQAREQAQqR0BCunKsdScREIHJE6hImg5/PJrkHJTxEHJHe/7okDsaXjVYZvzwdMTe4pIQH50ep/o6jLHPVB0U6r6hIVN2tJ47396HNMVfQZ9R0s9AaB9Euxs1c4XSmZUymrUchesePHjQHnroIXvppZesra2tpPdiao7PfOYzdtddd9nFF18cdqEvx3toTREQAREQAREQARGYCIF6TtmhNB0T+Q3QHBEQARGobwLlStmxZ88eu/zyy+sbnt5OBESg7AQqKqP5Nty8cIj5owuFdCqi6VvduXqLy8bLH00RzUopzRqkNDYnfB8iod9x7G37twsWJRHWOJepQgFdrg0JYxA9PT327W9/2775zW9ae3t7fGrKfeYLX79+vT388MO2dOnSKa+nBURABERABERABESgVATqVUhLRpfqN0TriIAIiEC2CUhIZ/v76elFoJ4JVFxGEybje7mh4TCyPXNzQ2acYHURHSQ0pTTn8kdSGuI+hjxK2oW0S2le0QcJDd2dreKpODwSulxPz/swLzTTcGzfvt1eeeWVkt5qzpw5dvXVV9s999xjH/7wh20mknariIAIiIAIiIAIiECtEahHIS0ZXWu/ZXoeERABEagegVIK6a9u2oTAwpwtWrTIFCFdvW+qO4tAPRCoiox2cDnK6LGENOV0KqEpoGMJHfexTiyk2R+GhOaGhpkqnoqDbbkLcza/+OKL9vTTT9szzzxj/f39JbslI6Gvuuoq27hxo23YsMEuuuiikq2thURABERABERABESgHARiId2Iv1r3zzt32vW33170rQ4fes0euOF663jrrZCSbMeOHeGfiYpeaIoXSEZPEaAuFwEREIE6IyAhXWcfVK8jAnVAoKwymnLybIW5o+OUHWNFSUdCmsLZ5XTo45At1fUIRHSmSqVScTiUAwcO2KOPPmp79+61I0eOlHQTRIrnT37yk8YNE1auXInNKpk1RUUEREAEREAEREAEap9APQlpyeja/33TE4qACIhApQlISFeauO4nAiJwJgJVl9F8OJrkoTGipAtTd6RR0bGQDpdnSUJXKhUHwXjp6uqyb33rW/aNb3zDent7Qy5qPzfVtgG7Q95444325S9/2S699FKbyB9ATPWeul4EREAEREAEREAESk2gXoS0ZHSpfzO0ngiIgAjUBwEJ6fr4jnoLEagHAsyzXPVCu9yCrQdbEEjdjJZBtU14skZUuM5TKqaGBB4YZ3syKyKaEnoIxp21EhsT8qNyQ8If//jHtnbtWvvSl75k3d3dJRPRs2fPtmuvvdZ++MMf2lNPPWXLly+XiCZ0FREQAREQAREQgUwSWLFihT333HO2ePFiG8Ff3fvaXXfZC08+WfS7LFn1btv+/Au2AOvwn/s2b94c0qMVvZAuEAEREAEREIESEuDfYt61a5e1tLRY17Fjtu0DN9gff3eg6Du8Hyk5/2X3bmvGOm1tbbZ+/Xp79dVXi15HF4iACExfAv8PWlnFQ8MusVcAAAAASUVORK5CYII=;" parent="1" vertex="1">
          <mxGeometry x="1050" y="640" width="1720" height="290" as="geometry" />
        </mxCell>
        <mxCell id="1D5xT1P8oQCdssmX4UYB-4" value="&lt;font style=&quot;font-size: 25px;&quot;&gt;EUV camera&lt;/font&gt;" style="rounded=0;whiteSpace=wrap;html=1;strokeWidth=2;fontStyle=1" parent="1" vertex="1">
          <mxGeometry x="2811" y="730" width="179" height="60" as="geometry" />
        </mxCell>
        <mxCell id="1D5xT1P8oQCdssmX4UYB-8" value="" style="endArrow=none;html=1;rounded=0;strokeWidth=3;" parent="1" edge="1">
          <mxGeometry width="50" height="50" relative="1" as="geometry">
            <mxPoint x="2467" y="814" as="sourcePoint" />
            <mxPoint x="2466" y="707" as="targetPoint" />
          </mxGeometry>
        </mxCell>
        <mxCell id="1D5xT1P8oQCdssmX4UYB-16" value="&lt;font style=&quot;font-size: 25px;&quot;&gt;Sample&lt;/font&gt;" style="text;html=1;align=center;verticalAlign=middle;whiteSpace=wrap;rounded=0;fontStyle=1" parent="1" vertex="1">
          <mxGeometry x="2430" y="650" width="60" height="30" as="geometry" />
        </mxCell>
        <mxCell id="1D5xT1P8oQCdssmX4UYB-18" value="&lt;font style=&quot;font-size: 25px;&quot;&gt;Ellipsoidal mirror&lt;/font&gt;" style="text;html=1;align=center;verticalAlign=middle;whiteSpace=wrap;rounded=0;fontStyle=1" parent="1" vertex="1">
          <mxGeometry x="1230" y="640" width="291" height="60" as="geometry" />
        </mxCell>
        <mxCell id="1D5xT1P8oQCdssmX4UYB-19" value="" style="rounded=0;whiteSpace=wrap;html=1;strokeWidth=2;" parent="1" vertex="1">
          <mxGeometry x="2800" y="735" width="11" height="50" as="geometry" />
        </mxCell>
        <mxCell id="1D5xT1P8oQCdssmX4UYB-22" value="&lt;font style=&quot;font-size: 25px;&quot;&gt;&lt;b&gt;Experimental setup placed inside&amp;nbsp;&lt;/b&gt;&lt;/font&gt;&lt;div&gt;&lt;font style=&quot;font-size: 25px;&quot;&gt;&lt;b&gt;the vacuum chamber&lt;/b&gt;&lt;/font&gt;&lt;/div&gt;" style="rounded=1;whiteSpace=wrap;html=1;" parent="1" vertex="1">
          <mxGeometry x="1210" y="900" width="650" height="100" as="geometry" />
        </mxCell>
        <mxCell id="kQ65fwL1ZyEFrVsFMYb_-2" value="&lt;b&gt;&lt;font style=&quot;font-size: 20px;&quot; color=&quot;#babbff&quot;&gt;HHG source&lt;/font&gt;&lt;/b&gt;" style="text;html=1;align=center;verticalAlign=middle;resizable=0;points=[];autosize=1;strokeColor=none;fillColor=none;" vertex="1" parent="1">
          <mxGeometry x="990" y="840" width="140" height="40" as="geometry" />
        </mxCell>
      </root>
    </mxGraphModel>
  </diagram>
</mxfile>
